<?xml version="1.0" encoding="utf-8"?>
<!-- Generator: Adobe Illustrator 16.0.0, SVG Export Plug-In . SVG Version: 6.00 Build 0)  -->
<!DOCTYPE svg PUBLIC "-//W3C//DTD SVG 1.1//EN" "http://www.w3.org/Graphics/SVG/1.1/DTD/svg11.dtd">
<svg version="1.1" id="Layer_1" xmlns="http://www.w3.org/2000/svg" xmlns:xlink="http://www.w3.org/1999/xlink" x="0px" y="0px"
	 width="740px" height="740px" viewBox="0 0 740 740" enable-background="new 0 0 740 740" xml:space="preserve">
<path opacity="0.1" stroke="#FFFFFF" stroke-miterlimit="10" enable-background="new    " d="M691.188,368.08l-98.434-160.407
	c-2.188-3.646-5.834-6.562-9.479-8.75l-40.104-18.228l0,0l0,0l-60.521-22.603l25.521-35.728c6.562-9.479,9.479-21.146,7.29-32.812
	c-2.188-11.666-8.75-21.874-18.229-28.436c-8.021-5.104-17.498-8.02-26.98-7.291c-1.457,0-2.188-0.729-3.645,0
	c-11.666,2.916-23.332,5.104-34.998,7.291c-2.188,0-3.646,0.729-5.104,0.729c-85.31,13.125-156.033-2.916-171.347-7.291l0,0l0,0
	c-2.916,0-4.374,0-4.374,0c-1.458,0-2.188,0-3.646,0c-9.479-0.729-19.688,1.458-27.706,7.291
	c-9.479,6.562-16.042,16.771-18.229,28.438c-2.188,11.667,0.729,23.333,7.292,32.811l22.604,32.082l-67.809,26.25l0,0l0,0
	l-40.103,18.229c-4.375,2.187-7.292,5.104-9.479,8.749L14.557,368.08c-3.646,5.104-5.104,11.668-4.375,18.229l13.124,189.572
	c0.729,4.375,2.188,8.75,5.104,12.396l5.832,41.562c0.73,3.646,4.375,6.562,8.021,5.834c0,0,34.268-4.377,63.434,0
	c0.729,0,0.729,0,1.458,0c3.646,0,6.562-2.188,7.292-5.834l6.562-40.104l0,0l0,0c4.375-5.104,7.292-12.396,7.292-18.957
	l2.916-212.899l21.874,2.916V714.42c0,3.646,2.917,6.561,6.562,7.291c0.729,0,65.621,7.291,196.136,7.291
	c130.516,0,187.387-7.291,189.572-7.291c3.646-0.729,6.562-3.646,6.562-7.291V360.059l21.873-2.916l2.918,212.906
	c0,7.291,2.916,13.854,7.291,19.688l6.562,40.104c0.729,3.646,3.646,5.834,7.291,5.834c0.729,0,0.729,0,1.459,0
	c29.164-4.377,62.702,0,63.438,0c3.646,0.729,7.291-2.188,8.021-5.834l5.834-41.561c2.916-3.646,5.104-8.021,5.104-12.396
	l13.853-189.574C696.291,379.748,694.838,373.184,691.188,368.08z"/>
<path fill="#7D7D7D" stroke="#FFFFFF" stroke-miterlimit="10" d="M712.463,330.504l-98.434-160.407
	c-2.188-3.646-5.834-6.562-9.479-8.75l-40.104-18.228l0,0l0,0l-60.521-22.603l25.521-35.728c6.562-9.479,9.479-21.145,7.289-32.811
	c-2.188-11.666-8.747-21.874-18.229-28.436c-8.021-5.104-17.497-8.02-26.979-7.291c-1.458,0-2.188-0.729-3.646,0
	c-11.666,2.916-23.331,5.104-34.997,7.291c-2.188,0-3.646,0.729-5.104,0.729c-85.312,13.125-156.033-2.916-171.347-7.291l0,0l0,0
	c-2.916,0-4.374,0-4.374,0c-1.458,0-2.188,0-3.646,0c-9.479-0.729-19.688,1.458-27.706,7.291
	c-9.479,6.562-16.042,16.771-18.229,28.438c-2.188,11.667,0.729,23.333,7.292,32.811l22.604,32.082l-67.811,26.249l0,0l0,0
	l-40.103,18.229c-4.375,2.187-7.292,5.104-9.479,8.749l-99.15,159.676c-3.646,5.104-5.104,11.667-4.375,18.229L44.58,538.303
	c0.729,4.375,2.188,8.75,5.104,12.396l5.832,41.561c0.73,3.646,4.375,6.562,8.021,5.834c0,0,34.268-4.377,63.434,0
	c0.729,0,0.729,0,1.458,0c3.646,0,6.562-2.188,7.292-5.834l6.562-40.104l0,0l0,0c4.375-5.104,7.292-12.396,7.292-18.957
	l2.916-212.899l21.874,2.916v353.625c0,3.646,2.917,6.562,6.562,7.291c0.729,0,65.621,7.291,196.135,7.291
	c130.516,0,187.388-7.291,189.57-7.291c3.646-0.729,6.562-3.646,6.562-7.291V322.48l21.873-2.915l2.918,212.902
	c0,7.291,2.916,13.854,7.291,19.688l6.562,40.104c0.729,3.646,3.646,5.834,7.291,5.834c0.729,0,0.729,0,1.459,0
	c29.164-4.377,62.703,0,63.438,0c3.646,0.729,7.291-2.188,8.021-5.834l5.834-41.561c2.916-3.646,5.104-8.021,5.104-12.396
	l13.85-189.571C717.566,342.171,716.111,335.606,712.463,330.504z"/>
<g>
	<path d="M712.463,330.504l-98.434-160.407c-2.188-3.646-5.834-6.562-9.479-8.75l-40.104-18.228l0,0l0,0l-60.521-22.603
		l25.521-35.728c6.562-9.479,9.479-21.145,7.289-32.811c-2.188-11.666-8.747-21.874-18.229-28.436
		c-8.021-5.104-17.497-8.02-26.979-7.291c-1.458,0-2.188-0.729-3.646,0c-11.666,2.916-23.331,5.104-34.997,7.291
		c-2.188,0-3.646,0.729-5.104,0.729c-85.312,13.125-156.033-2.916-171.347-7.291l0,0l0,0c-2.916,0-4.374,0-4.374,0
		c-1.458,0-2.188,0-3.646,0c-9.479-0.729-19.688,1.458-27.706,7.291c-9.479,6.562-16.042,16.771-18.229,28.438
		c-2.188,11.667,0.729,23.333,7.292,32.811l22.604,32.082l-67.811,26.249l0,0l0,0l-40.103,18.229
		c-4.375,2.187-7.292,5.104-9.479,8.749l-99.15,159.676c-3.646,5.104-5.104,11.667-4.375,18.229L44.58,538.303
		c0.729,4.375,2.188,8.75,5.104,12.396l5.832,41.561c0.73,3.646,4.375,6.562,8.021,5.834c0,0,34.268-4.377,63.434,0
		c0.729,0,0.729,0,1.458,0c3.646,0,6.562-2.188,7.292-5.834l6.562-40.104l0,0l0,0c4.375-5.104,7.292-12.396,7.292-18.957
		l2.916-212.902l21.874,2.916v353.625c0,3.646,2.917,6.562,6.562,7.291c0.729,0,65.621,7.291,196.135,7.291
		c130.516,0,187.388-7.291,189.57-7.291c3.646-0.729,6.562-3.646,6.562-7.291V322.481l21.873-2.916l2.918,212.902
		c0,7.291,2.916,13.854,7.291,19.688l6.562,40.104c0.729,3.646,3.646,5.834,7.291,5.834c0.729,0,0.729,0,1.459,0
		c29.164-4.377,62.703,0,63.438,0c3.646,0.729,7.291-2.188,8.021-5.834l5.834-41.561c2.916-3.646,5.104-8.021,5.104-12.396
		l13.85-189.571C717.566,342.171,716.111,335.606,712.463,330.504z M522.161,54.895c1.458,8.021,0,15.312-5.104,21.874
		l-30.623,43.019c-8.748,12.395-24.789,15.312-37.188,6.562c-12.396-8.02-16.04-24.791-8.021-37.186l0.729-0.729l0,0l25.521-40.831
		c0.729-1.459,3.646-6.562,2.918-11.667c5.832-1.458,11.664-2.917,18.229-4.375h0.729c7.291-1.458,14.582,0,21.146,4.375
		C516.328,40.312,520.703,46.874,522.161,54.895z M373.42,181.033l-47.396-47.394c9.479,2.188,29.165,6.562,53.957,6.562
		c13.854,0,29.896-1.458,46.662-5.104C417.896,142.389,402.583,155.513,373.42,181.033z M425.915,119.787
		c-40.104,9.478-75.828,3.646-91.869,0c3.646-8.021,4.374-17.5,2.188-26.249c10.206,1.458,25.52,2.917,43.747,2.917
		c13.854,0,28.438-0.729,44.479-2.917C421.541,103.017,422.271,111.766,425.915,119.787z M380.71,43.957
		c21.146,0,44.479-1.458,68.537-5.104l0,0c0.729,0,2.188,0,2.917-0.729c0.729,0,0.729,0,1.458,0c0.729,0,1.458,0,2.188,0
		c0,0.729-0.729,1.458-0.729,1.458L431.02,77.497c-45.205,8.75-90.412,2.917-102.078,0.729l-24.79-39.373c1.458,0,3.646,0,8.021,0
		l0,0C330.403,41.77,353.733,43.957,380.71,43.957z M237.074,54.895c1.458-8.021,5.832-14.583,12.396-18.958
		c7.292-4.375,15.312-5.833,23.332-3.646c2.917,0.729,8.75,2.188,15.312,3.646c0,4.375,1.458,8.75,3.646,11.667l26.249,41.56
		c8.021,12.395,4.375,29.166-8.021,37.186s-28.437,5.104-37.187-6.562l-30.623-43.021C237.801,70.206,235.616,62.186,237.074,54.895
		z M48.23,337.796l98.433-159.679c0.729-1.458,2.188-2.187,3.646-2.916l33.54-15.312c6.562,16.041,21.146,59.061,16.042,102.078
		c-4.375,41.56-15.312,46.664-16.77,47.396l-29.166-3.646v-34.27c0-4.375-2.916-7.293-7.292-7.293c-4.375,0-7.291,2.918-7.291,7.293
		v40.833l-2.917,220.928c0,2.188-0.729,4.375-1.458,6.562c-31.354-8.75-61.979-3.646-73.643-0.729c0-0.729-0.729-1.457-0.729-2.188
		L46.041,347.274C46.041,343.629,46.772,340.712,48.23,337.796z M122.6,582.782c-21.145-2.188-42.288-0.73-53.227,0l-4.375-30.625
		c10.937-2.916,36.456-6.562,62.705,0L122.6,582.782z M189.68,321.755c1.458-0.729,2.188-1.459,3.646-2.188
		c10.208-8.021,17.498-26.979,20.414-56.146c5.104-46.665-10.207-91.87-16.771-109.369l63.436-24.061c0.729,0,1.458-0.73,1.458-0.73
		c8.021,10.938,20.416,16.77,33.54,16.77c5.833,0,12.396-1.458,18.229-4.374l48.854,48.851c-8.75,8.02-13.854,18.957-13.854,31.353
		V676.84c-88.226-0.729-141.451-5.104-158.949-6.562L189.68,321.755L189.68,321.755z M397.48,676.108V220.406
		c0-4.375-2.916-7.292-7.291-7.292s-7.291,2.917-7.291,7.292v456.433c-1.455,0-3.646,0-5.104,0c-5.104,0-9.479,0-14.583,0V221.863
		c0-8.02,3.646-15.311,9.479-20.415c1.459-1.459,3.646-2.917,5.104-4.375c0,0,0.729,0,0.729-0.729l0,0
		c34.997-30.624,58.324-51.039,64.156-56.143c6.562,3.646,13.854,5.833,21.146,5.833c10.938,0,21.874-4.374,30.624-13.124
		l56.871,21.874c-6.562,17.499-22.604,62.706-16.771,109.369c3.646,29.166,10.207,48.125,20.414,56.145
		c1.459,0.729,2.188,1.457,3.646,2.188v347.792C541.848,671.735,490.079,676.108,397.48,676.108z M625.699,582.782l-5.104-29.896
		c25.521-7.291,51.037-2.918,62.703,0l-4.375,30.621C667.988,581.322,646.115,579.863,625.699,582.782z M689.131,536.118
		c0,0.729,0,1.457-0.729,2.188c-12.396-2.916-42.289-8.75-73.646,0.729c-0.729-2.188-1.457-4.375-1.457-6.562l-2.916-220.926
		v-40.831c0-4.375-2.918-7.291-7.293-7.291c-4.373,0-7.291,2.917-7.291,7.291v34.27l-29.164,3.646
		c-1.457-0.729-12.396-5.832-16.771-47.395c-5.104-42.288,9.479-85.308,16.041-102.078l33.539,15.312
		c1.459,0.729,2.916,1.458,3.646,2.916l98.438,159.682c1.459,2.917,2.188,5.833,2.188,9.479L689.131,536.118z"/>
	<path d="M314.361,512.786h-96.245c-4.375,0-7.292,2.916-7.292,7.291v29.895v95.521c0,3.646,2.916,7.291,7.292,7.291l96.245,4.375
		l0,0c2.188,0,3.646-0.729,5.104-2.188s2.188-3.646,2.188-5.104V549.97v-29.895C321.652,515.702,318.735,512.786,314.361,512.786z
		 M307.069,544.138l-40.831,12.396l-40.83-12.396v-16.77h81.661V544.138z M225.408,638.925v-79.477l38.646,11.666
		c0.729,0,1.458,0,2.188,0s1.458,0,2.188,0l38.645-11.666v83.114L225.408,638.925z"/>
	<path d="M525.809,512.786h-96.243c-4.375,0-7.291,2.916-7.291,7.291v29.895v100.619c0,2.188,0.729,3.646,2.188,5.104
		c1.459,1.455,2.916,2.188,5.104,2.188l0,0l96.977-5.104c3.646,0,7.291-3.646,7.291-7.291V549.97v-29.894
		C533.1,515.702,530.182,512.786,525.809,512.786z M518.516,544.138l-40.83,12.396l-40.832-12.396v-16.77h81.662V544.138
		L518.516,544.138z M436.854,642.57v-83.117l38.646,11.665c0.729,0,1.458,0,2.188,0c0.73,0,1.462,0,2.188,0l38.646-11.666v78.741
		L436.854,642.57z"/>
	<path d="M435.396,415.081c4.37,0,7.286-2.914,7.286-7.289V275.818c0-4.374-2.916-7.291-7.286-7.291
		c-4.38,0-7.296,2.917-7.296,7.291V408.52C428.104,412.165,431.749,415.081,435.396,415.081z"/>
	<path d="M304.153,415.081c4.375,0,7.291-2.914,7.291-7.289V275.818c0-4.374-2.916-7.291-7.291-7.291s-7.292,2.917-7.292,7.291
		V408.52C296.862,412.165,299.778,415.081,304.153,415.081z"/>
</g>
</svg>
