<?xml version="1.0" encoding="utf-8"?>
<!-- Generator: Adobe Illustrator 16.0.0, SVG Export Plug-In . SVG Version: 6.00 Build 0)  -->
<!DOCTYPE svg PUBLIC "-//W3C//DTD SVG 1.1//EN" "http://www.w3.org/Graphics/SVG/1.1/DTD/svg11.dtd">
<svg version="1.1" id="Layer_1" xmlns="http://www.w3.org/2000/svg" xmlns:xlink="http://www.w3.org/1999/xlink" x="0px" y="0px"
	 width="740px" height="740px" viewBox="0 0 740 740" enable-background="new 0 0 740 740" xml:space="preserve">
<g>
	<g>
		<g opacity="0.1">
			<path d="M509.81,305.428c27.835,0,50.365-22.555,50.365-50.373c0-27.835-22.557-50.385-50.365-50.385
				c-27.835,0-50.386,22.549-50.386,50.385C459.426,282.872,481.975,305.428,509.81,305.428z M621.269,300.367
				c-1.815,1.167-3.396,2.548-4.798,4.083c-9.917,8.417-42.086,33.663-56.304,36.241c-18.466,3.367-28.562,5.033-36.968,0
				c-7.396-4.432-50.057-32.392-60.033-38.919c-0.146-0.113-0.291-0.196-0.438-0.303c-1.062-0.703-1.654-1.089-1.654-1.089
				c-3.021-1.853-6.209-3.149-9.501-4.006c-13.481-4.471-29.69-4.078-46.858,2.018c-23.606,8.352-131.253,22.799-155.546,31.508
				c-9.44,1.977-17.219,9.436-19.037,19.496c-2.391,13.251,6.411,25.918,19.646,28.305c3.631,0.668,7.203,0.447,10.549-0.437
				c11.729-1.772,105.591-16.938,106.229-13.856c0.644,3.08-73.803,121.998-80.168,133.474c-8.368,15.119-6.688,16.773-30.215,8.375
				c-20.115-7.174-62.14-27.033-77.029-32.108c-3.154-1.466-6.626-2.312-10.321-2.312c-13.453,0-24.341,10.896-24.341,24.357
				c0,10.229,6.292,18.955,15.221,22.562c22.393,12.896,74.729,37.234,96.47,49.65c23.506,13.438,45.348,15.104,57.108-1.688
				c11.766-16.772,33.875-55.473,36.938-55.434c3.063,0.037,20.156,52.074,15.115,60.469c-4.619,7.717-41.236,89.418-45.854,107.877
				c-1.271,2.98-1.993,6.244-1.993,9.691c0,13.453,10.91,24.342,24.354,24.342c8.895,0,16.646-4.787,20.914-11.883
				c8.201-9.535,14.921-24.185,26.119-44.365c16.787-30.229,28.551-50.393,35.271-63.832c6.709-13.418,11.751-8.371,0-47.004
				c-11.766-38.641-25.188-55.426-11.766-77.271c13.453-21.844,33.604-48.69,33.604-48.69s39.101-44.883,40.305-45.361
				c1.204-0.477,16.017,14.865,41.41,17.24c5.394,0.5,11.202,0.441,17.38-0.439c28.183-4.028,90.207-37.425,102.692-49.854
				c11.175-7.304,14.384-22.258,7.153-33.508C647.664,296.385,632.593,293.099,621.269,300.367z"/>
		</g>
	</g>
	<path opacity="0.1" enable-background="new    " d="M320.246,171.916c-4.712-13.261-26.909-36.556-27.87-37.699l-33.568-32.766
		c-1.836-1.872-4.457-2.923-7.52-2.627c-7.353,0.475-19.943-4.56-19.943-4.56c-3.407-1.366-13.288-6.075-16.783-10.127
		c-1.662-2.182-4.282-3.23-7.434-3.352l-51.35-0.807c-1.662,0.096-36.734,0.103-52.396,5.6c-1.573,0.507-2.892,2.258-2.801,3.812
		l-3.812,57.271c-0.177,1.447,0.785,2.592,2.271,2.806c2.188,0.115,8.655,1.186,10.489,4.197c0.699,1.039,0.699,2.176,0.352,3.933
		l-75.15,128.128c-0.521,0.926-0.612,1.65-0.438,2.477c0.174,0.831,0.521,1.349,1.312,1.664l138.771,55.493
		c0.782,0.312,1.482,0.214,2.359-0.195c0.874-0.408,1.663-1.232,2.017-1.848l70.956-129.811c0.962-1.133,2.272-1.746,3.852-2.253
		c4.375-0.907,9.183,2.534,10.491,4.196c0.875,0.729,2.537,0.636,4.021-0.289l50.502-38.6
		C319.976,175.226,320.768,173.264,320.246,171.916z"/>
</g>
<g>
	<g>
		<path d="M556.81,238.937c27.835,0,50.366-22.555,50.366-50.373c0-27.835-22.558-50.385-50.366-50.385
			c-27.835,0-50.386,22.549-50.386,50.385C506.426,216.38,528.975,238.937,556.81,238.937z M668.269,233.875
			c-1.815,1.167-3.396,2.548-4.798,4.083c-9.917,8.417-42.086,33.663-56.305,36.241c-18.465,3.37-28.562,5.036-36.967,0
			c-7.396-4.429-50.057-32.389-60.033-38.919c-0.146-0.113-0.291-0.196-0.438-0.303c-1.062-0.703-1.655-1.089-1.655-1.089
			c-3.021-1.853-6.209-3.149-9.501-4.006c-13.481-4.471-29.69-4.078-46.858,2.018c-23.605,8.352-131.252,22.799-155.546,31.508
			c-9.44,1.977-17.219,9.436-19.037,19.496c-2.391,13.251,6.411,25.918,19.646,28.306c3.631,0.667,7.203,0.446,10.549-0.435
			c11.729-1.774,105.592-16.938,106.229-13.858c0.646,3.08-73.802,121.997-80.167,133.473c-8.369,15.121-6.688,16.775-30.216,8.375
			c-20.115-7.172-62.14-27.028-77.029-32.106c-3.154-1.465-6.626-2.312-10.321-2.312c-13.453,0-24.341,10.896-24.341,24.357
			c0,10.229,6.292,18.953,15.221,22.561c22.393,12.896,74.729,37.234,96.47,49.652c23.507,13.438,45.348,15.104,57.108-1.688
			c11.767-16.775,33.875-55.474,36.938-55.437c3.062,0.039,20.155,52.076,15.114,60.471c-4.618,7.72-41.234,89.416-45.854,107.877
			c-1.271,2.979-1.993,6.244-1.993,9.689c0,13.453,10.91,24.342,24.354,24.342c8.896,0,16.646-4.785,20.914-11.883
			c8.2-9.535,14.922-24.182,26.118-44.365c16.787-30.229,28.55-50.391,35.271-63.832c6.71-13.418,11.753-8.369,0-47.002
			c-11.764-38.641-25.188-55.428-11.764-77.27c13.452-21.843,33.604-48.693,33.604-48.693s39.101-44.882,40.305-45.36
			c1.204-0.478,16.017,14.864,41.41,17.239c5.393,0.5,11.202,0.441,17.38-0.438c28.184-4.03,90.207-37.425,102.692-49.854
			c11.175-7.304,14.384-22.258,7.154-33.508C694.664,229.895,679.593,226.607,668.269,233.875z"/>
	</g>
</g>
<g>
	<path fill="#E46441" d="M367.246,105.424c-4.712-13.261-26.91-36.556-27.871-37.699l-33.568-32.766
		c-1.836-1.872-4.457-2.923-7.519-2.627c-7.353,0.475-19.943-4.56-19.943-4.56c-3.407-1.366-13.288-6.075-16.783-10.127
		c-1.662-2.182-4.282-3.23-7.434-3.352l-51.35-0.807c-1.662,0.096-36.734,0.103-52.396,5.6c-1.573,0.507-2.892,2.258-2.801,3.812
		l-3.812,57.271c-0.177,1.447,0.785,2.592,2.271,2.806c2.188,0.115,8.655,1.186,10.489,4.197c0.699,1.039,0.699,2.176,0.352,3.933
		l-75.15,128.128c-0.521,0.926-0.612,1.65-0.438,2.477c0.174,0.831,0.521,1.349,1.312,1.664l138.771,55.493
		c0.782,0.313,1.482,0.214,2.359-0.195c0.874-0.408,1.663-1.232,2.017-1.848l70.956-129.808c0.962-1.133,2.272-1.746,3.852-2.253
		c4.375-0.907,9.183,2.534,10.492,4.196c0.874,0.729,2.536,0.636,4.021-0.289l50.502-38.6
		C366.976,108.734,367.768,106.772,367.246,105.424z"/>
	<path d="M367.246,105.424c-4.712-13.261-26.91-36.556-27.871-37.699l-33.568-32.766c-1.836-1.872-4.457-2.923-7.519-2.627
		c-7.353,0.475-19.943-4.56-19.943-4.56c-3.407-1.366-13.288-6.075-16.783-10.127c-1.662-2.182-4.282-3.23-7.434-3.352l-51.35-0.807
		c-1.662,0.096-36.734,0.103-52.396,5.6c-1.573,0.507-2.892,2.258-2.801,3.812l-3.812,57.271c-0.177,1.447,0.785,2.592,2.271,2.806
		c2.188,0.115,8.655,1.186,10.489,4.197c0.699,1.039,0.699,2.176,0.352,3.933l-75.15,128.128c-0.521,0.926-0.612,1.65-0.438,2.477
		c0.174,0.831,0.521,1.349,1.312,1.664l138.771,55.493c0.782,0.313,1.482,0.214,2.359-0.195c0.874-0.408,1.663-1.232,2.017-1.848
		l70.956-129.808c0.962-1.133,2.272-1.746,3.852-2.253c4.375-0.907,9.183,2.534,10.492,4.196c0.874,0.729,2.536,0.636,4.021-0.289
		l50.502-38.6C366.976,108.734,367.768,106.772,367.246,105.424z M261.177,58.082c-10.492-4.195-12.321-12.895-12.054-19.614
		c0.182-7.137,2.812-12.913,2.981-13.223c0.7-1.238,1.75-1.954,2.799-1.535c0,0,0,0,0.268,0.104c0.786,0.314,1.224,1.248,0.784,2.59
		c0,0-2.452,5.468-2.636,11.465c-0.27,7.858,3.312,13.462,10.396,16.296c7.083,2.833,14.52,1.632,21.604-3.498
		c5.432-3.899,8.753-8.638,8.934-8.947c0.521-0.928,1.837-1.541,2.888-1.122c0,0,0,0,0.264,0.104
		c1.053,0.419,0.872,1.865,0.352,2.793c-0.181,0.312-3.854,5.667-10.332,10.283C280.861,57.982,271.671,62.278,261.177,58.082z
		 M289.271,38.587L289.271,38.587L289.271,38.587c0,0-2.803,3.811-6.74,6.788c-5.426,3.9-10.321,4.596-15.567,2.497
		c-5.247-2.098-7.695-5.729-7.689-11.417c0.004-4.551,2.021-8.676,2.021-8.676l0,0c5.596,3.755,12.938,6.691,13.201,6.797
		C275.192,34.478,282.274,37.31,289.271,38.587z M150.162,76.276l3.454-52.104c15.484-4.05,47.15-4.285,47.411-4.18l47.062,0.99
		c-0.787,0.823-1.312,1.75-1.839,2.677c-0.354,0.619-3.417,7.739-3.601,16.012c-0.09,1.861-0.003,3.413,0.344,5.069
		c-36.474-2.068-73.146,26.888-83.125,35.417C157.158,77.557,152.875,76.603,150.162,76.276z M88.904,217.928l73.578-125.346
		c0.175-0.309,0.354-0.617,0.524-0.926c0.878-2.684,0.879-4.962,0.44-7.032c9.19-7.704,46.305-36.866,81.024-32.843
		c0.264,0.104,0.438-0.205,0.699-0.098c2.354,5.492,6.642,9.861,12.938,12.377c6.033,2.415,12.599,2.762,19.155,0.832l0,0
		c26.399,20.42,22.079,64.971,20.674,74.271c-1.751,0.818-3.59,2.359-5.165,4.004c-0.176,0.309-0.352,0.619-0.522,0.928
		l-69.385,127.023l-133.783-53.5L88.904,217.928z M314.38,141.943c-2.009-1.561-5.856-3.858-10.667-3.886
		c1.495-11.162,5.377-53.231-19.358-76.021c1.75-0.816,3.414-2.048,5.338-3.175c7.526-5.336,11.904-11.929,12.521-12.444
		c0.521-0.927,1.052-1.854,1.312-2.887l30.771,29.751c0.261,0.104,20.011,20.902,26.038,33.553L314.38,141.943z"/>
</g>
</svg>
