<?xml version="1.0" encoding="utf-8"?>
<!-- Generator: Adobe Illustrator 16.0.0, SVG Export Plug-In . SVG Version: 6.00 Build 0)  -->
<!DOCTYPE svg PUBLIC "-//W3C//DTD SVG 1.1//EN" "http://www.w3.org/Graphics/SVG/1.1/DTD/svg11.dtd">
<svg version="1.1" id="Layer_1" xmlns="http://www.w3.org/2000/svg" xmlns:xlink="http://www.w3.org/1999/xlink" x="0px" y="0px"
	 width="538.582px" height="538.583px" viewBox="0 0 538.582 538.583" enable-background="new 0 0 538.582 538.583"
	 xml:space="preserve">
<g>
	<path fill="#F3E59A" d="M424.219,382.047c-59.806,0-114.413-35.125-139.546-90.444c-17.335-37.766-19.073-79.911-5.197-119.428
		c13.866-39.517,42.468-70.251,79.745-87.814c15.601-7.901,32.936-12.294,50.266-14.048c3.472,0,7.8,1.754,8.669,5.268
		c1.729,3.513,0.87,7.903-1.728,10.541c-40.74,41.275-52.002,103.62-27.734,156.308c22.537,48.298,71.071,79.911,123.071,79.911
		c4.338,0,8.667,0,13.007-0.879c3.472,0,7.798,1.751,8.664,5.266c1.73,3.515,0.872,7.898-1.727,10.539
		c-12.135,12.294-26.87,22.832-42.471,29.858C468.424,376.777,446.752,382.047,424.219,382.047z"/>
</g>
<path fill="#ECF0F1" d="M75.334,324.873c-35.97,0-65.312,29.44-65.312,65.521c0,36.085,29.342,65.521,65.312,65.521h283.966
	c35.968,0,65.312-29.437,65.312-65.521c0-36.081-29.344-65.521-65.312-65.521c-3.785,0-7.573,0-11.358,0.953
	c-2.84,0-5.678,0-7.576-1.899c-1.892-1.897-3.788-3.797-3.788-6.647c-8.515-58.869-59.639-103.496-119.266-103.496
	c-59.638,0-110.744,44.63-119.266,103.496c0,2.851-1.893,4.75-3.788,6.647c-1.896,1.902-4.738,1.902-7.575,1.902
	C81.96,324.873,78.172,324.873,75.334,324.873z"/>
<g>
	<path fill="#2C3E50" d="M459.752,377.758c-4.482,0-8.062-2.687-8.962-7.171c-0.898-5.379,1.792-9.862,7.18-10.76
		c9.86-1.79,19.722-5.376,28.685-9.869c6.274-2.684,12.55-6.271,18.824-10.76c-56.474-4.485-106.67-38.546-130.874-89.637
		c-24.2-51.99-17.926-112.047,14.336-157.765c-7.17,1.791-13.444,4.483-19.721,7.171c-39.435,18.824-67.23,53.783-77.089,95.914
		c-0.896,5.376-6.275,8.067-10.756,7.171c-5.379-0.896-8.068-6.275-7.179-10.759c10.761-48.405,42.132-87.844,86.956-109.358
		c16.135-7.171,33.159-12.55,51.094-14.341c3.585,0,8.062,1.792,8.965,5.378c1.788,3.585,0.896,8.065-1.792,10.756
		c-42.131,41.235-52.888,103.984-28.686,156.872c25.098,52.886,80.676,85.152,138.946,78.878c3.588,0,8.061,1.791,8.957,5.376
		c1.791,3.589,0.905,8.064-1.789,10.759c-12.549,12.55-27.788,22.42-43.923,30.479C482.163,370.584,470.517,375.959,459.752,377.758
		C459.403,377.752,459.752,377.758,459.752,377.758z"/>
</g>
<g>
	<path fill="#2C3E50" d="M348.608,470.986H79.681c-44.819,0-80.667-35.857-80.667-80.677s35.856-80.671,80.667-80.671
		c1.792,0,2.69,0,4.487,0c13.445-60.058,67.229-104.875,129.971-104.875c62.744,0,116.539,43.924,129.978,104.875
		c1.792,0,3.586,0,4.486,0c44.819,0,80.667,35.857,80.667,80.671C429.276,435.128,393.419,470.986,348.608,470.986z M79.681,328.458
		c-34.063,0-61.842,27.787-61.842,61.851c0,34.06,27.779,61.85,61.842,61.85h268.925c34.054,0,61.843-27.79,61.843-61.85
		c0-34.063-27.789-61.851-61.843-61.851c-3.594,0-7.181,0-10.761,0.901c-2.688,0-5.377,0-7.171-1.79
		c-1.792-1.788-3.586-3.588-3.586-6.273c-8.067-55.581-56.481-97.71-112.953-97.71c-56.473,0-104.875,42.132-112.945,97.71
		c0,2.686-1.788,4.485-3.586,6.273c-1.793,1.79-4.487,1.79-7.17,1.79C86.854,328.458,83.266,328.458,79.681,328.458z"/>
</g>
</svg>
