<?xml version="1.0" encoding="utf-8"?>
<!-- Generator: Adobe Illustrator 16.0.0, SVG Export Plug-In . SVG Version: 6.00 Build 0)  -->
<!DOCTYPE svg PUBLIC "-//W3C//DTD SVG 1.1//EN" "http://www.w3.org/Graphics/SVG/1.1/DTD/svg11.dtd">
<svg version="1.1" id="Layer_1" xmlns="http://www.w3.org/2000/svg" xmlns:xlink="http://www.w3.org/1999/xlink" x="0px" y="0px"
	 width="538.582px" height="538.583px" viewBox="0 0 538.582 538.583" enable-background="new 0 0 538.582 538.583"
	 xml:space="preserve">
<g>
	<g>
		<g>
			<path fill="#F3E59A" d="M335.354,382.99c-15.25,0-30.499-3.39-44.903-10.169c-55.064-24.572-79.637-89.809-54.224-144.874
				c17.792-38.972,56.767-64.385,99.969-64.385c15.253,0,30.506,3.389,44.906,10.168c55.064,24.569,79.639,89.81,54.226,144.872
				C417.538,357.576,378.564,382.99,335.354,382.99z"/>
		</g>
		<g>
			<g>
				<path fill="#2C3E50" d="M414.735,342.663c-1.686,0-3.381-0.846-5.07-1.69c-4.228-2.533-4.228-8.448-1.686-12.677
					c4.228-5.916,7.601-11.832,10.986-17.749c10.143-21.977,10.979-47.328,2.529-70.148c-8.445-22.818-25.348-41.412-48.174-50.71
					c-34.653-16.06-76.066-7.605-103.111,19.438c-3.381,3.38-9.298,3.38-12.679,0c-3.38-3.38-3.38-9.298,0-12.679
					c32.116-32.961,81.135-42.258,123.395-22.818c26.197,11.833,46.477,33.808,57.471,60.853
					c10.146,27.046,9.296,56.625-2.536,83.673c-3.38,7.602-7.601,15.212-12.678,21.127
					C419.806,340.972,417.27,342.663,414.735,342.663z"/>
			</g>
		</g>
	</g>
	<path fill="#ECF0F1" d="M70.805,331.634c-33.914,0-61.579,27.755-61.579,61.773c0,34.022,27.665,61.774,61.579,61.774h267.735
		c33.912,0,61.578-27.752,61.578-61.774c0-34.019-27.666-61.773-61.578-61.773c-3.569,0-7.141,0-10.709,0.896
		c-2.678,0-5.354,0-7.144-1.789c-1.783-1.791-3.571-3.582-3.571-6.267c-8.028-55.507-56.23-97.585-112.448-97.585
		c-56.229,0-104.414,42.079-112.449,97.585c0,2.685-1.785,4.476-3.572,6.267c-1.783,1.792-4.467,1.792-7.142,1.792
		C77.053,331.634,73.483,331.634,70.805,331.634z"/>
	<g>
		<g>
			<path fill="#2C3E50" d="M332.421,467.747H78.865c-42.257,0-76.064-33.809-76.064-76.063c0-42.258,33.808-76.063,76.064-76.063
				c1.69,0,2.536,0,4.23,0c12.677-56.621,63.386-98.88,122.542-98.88s109.877,41.414,122.547,98.88c1.689,0,3.381,0,4.229,0
				c42.258,0,76.058,33.809,76.058,76.063C408.478,433.935,374.673,467.747,332.421,467.747z M78.865,333.365
				c-32.115,0-58.316,26.199-58.316,58.312c0,32.116,26.201,58.315,58.316,58.315H332.42c32.108,0,58.309-26.199,58.309-58.315
				c0-32.113-26.199-58.312-58.309-58.312c-3.388,0-6.77,0-10.146,0.848c-2.535,0-5.069,0-6.761-1.688s-3.389-3.383-3.389-5.915
				c-7.601-52.4-53.243-92.124-106.488-92.124c-53.246,0-98.881,39.724-106.49,92.124c0,2.532-1.686,4.227-3.381,5.915
				c-1.69,1.688-4.23,1.688-6.761,1.688C85.629,333.365,82.245,333.365,78.865,333.365z"/>
		</g>
		<g>
			<path fill="#2C3E50" d="M523.421,366.324c-0.847,0-2.536,0-3.382-0.846l-49.864-22.818c-4.226-1.688-6.762-7.604-4.226-11.833
				c1.686-4.229,7.601-6.76,11.83-4.229l49.866,22.819c4.226,1.686,6.76,7.601,4.226,11.831
				C530.189,364.637,526.801,366.324,523.421,366.324z"/>
		</g>
		<g>
			<path fill="#2C3E50" d="M397.499,143.205c-0.853,0-2.536,0-3.389-0.844c-4.227-1.689-6.761-7.607-4.227-11.833l22.819-49.864
				c1.686-4.228,7.601-6.762,11.832-4.228c4.228,1.689,6.761,7.604,4.228,11.833l-22.82,49.864
				C404.254,140.671,400.874,143.205,397.499,143.205z"/>
		</g>
		<g>
			<path fill="#2C3E50" d="M476.943,227.721c-3.387,0-6.769-2.536-8.452-5.917c-1.689-4.226,0.847-9.296,5.065-10.986l50.717-19.438
				c4.225-1.689,9.296,0.844,10.979,5.072c1.688,4.226-0.848,9.295-5.063,10.986l-50.717,19.438
				C479.472,227.721,478.627,227.721,476.943,227.721z"/>
		</g>
		<g>
			<path fill="#2C3E50" d="M281.704,138.977c-3.38,0-6.761-2.536-8.45-5.917l-19.437-50.709c-1.688-4.226,0.848-9.295,5.065-10.987
				c4.23-1.687,9.304,0.848,10.987,5.072l19.438,50.71c1.686,4.228-0.853,9.297-5.069,10.986
				C283.395,138.977,282.549,138.977,281.704,138.977z"/>
		</g>
	</g>
</g>
</svg>
