<?xml version="1.0" encoding="utf-8"?>
<!-- Generator: Adobe Illustrator 16.0.0, SVG Export Plug-In . SVG Version: 6.00 Build 0)  -->
<!DOCTYPE svg PUBLIC "-//W3C//DTD SVG 1.1//EN" "http://www.w3.org/Graphics/SVG/1.1/DTD/svg11.dtd">
<svg version="1.1" id="Layer_1" xmlns="http://www.w3.org/2000/svg" xmlns:xlink="http://www.w3.org/1999/xlink" x="0px" y="0px"
	 width="538.582px" height="538.583px" viewBox="0 0 538.582 538.583" enable-background="new 0 0 538.582 538.583"
	 xml:space="preserve">
<g>
	<path fill="#ECF0F1" d="M104.851,144.665c-41.875,0-76.035,34.274-76.035,76.278c0,42.009,34.159,76.277,76.035,76.277h330.588
		c41.875,0,76.036-34.268,76.036-76.277c0-42.003-34.161-76.278-76.036-76.278c-4.406,0-8.816,0-13.224,1.108
		c-3.304,0-6.608,0-8.819-2.21c-2.202-2.211-4.41-4.42-4.41-7.738C399.073,67.287,339.561,15.333,270.14,15.333
		c-69.43,0-128.927,51.958-138.848,120.492c0,3.318-2.203,5.527-4.41,7.738c-2.202,2.214-5.516,2.214-8.818,2.214
		C112.567,144.665,108.156,144.665,104.851,144.665z"/>
	<g>
		<path fill="#2C3E50" d="M447.75,403.913h-39.656l28.171-28.175c4.179-4.175,4.179-11.482,0-15.656
			c-4.177-4.177-11.48-4.177-15.657,0l-28.173,28.178v-39.658c0-6.259-5.222-10.433-10.437-10.433
			c-5.218,0-10.428,5.22-10.428,10.433v39.658l-28.18-28.178c-4.174-4.177-11.485-4.177-15.659,0
			c-4.174,4.174-4.174,11.481,0,15.656l28.176,28.175h-39.653c-6.262,0-10.436,5.222-10.436,10.436
			c0,5.221,5.223,10.435,10.436,10.435h39.653l-28.176,28.177c-4.174,4.174-4.174,11.48,0,15.656
			c2.089,2.081,5.225,3.127,7.312,3.127c2.082,0,5.219-1.049,7.308-3.127l28.167-28.177v39.653c0,6.261,5.225,10.437,10.437,10.437
			c5.223,0,10.433-5.226,10.433-10.437v-39.653l28.18,28.177c2.081,2.081,5.218,3.127,7.303,3.127c2.082,0,5.219-1.049,7.307-3.127
			c4.174-4.176,4.174-11.482,0-15.656l-25.046-27.137h39.656c6.254,0,10.433-5.222,10.433-10.437
			C459.227,410.174,454.004,403.913,447.75,403.913z"/>
		<path fill="#2C3E50" d="M237.985,447.743h-39.653l28.167-28.174c4.181-4.176,4.181-11.482,0-15.656
			c-4.174-4.174-11.479-4.174-15.655,0l-28.176,28.174v-39.651c0-6.263-5.218-10.437-10.428-10.437
			c-5.223,0-10.435,5.222-10.435,10.437v39.651l-28.176-27.137c-4.176-4.174-11.481-4.174-15.655,0
			c-4.181,4.181-4.181,11.487,0,15.661l28.167,28.169h-39.653c-6.256,0-10.43,5.226-10.43,10.437c0,5.222,5.218,10.437,10.43,10.437
			h39.653l-28.167,28.172c-4.181,4.178-4.181,11.481,0,15.655c2.082,2.085,5.218,3.133,7.305,3.133c2.082,0,5.218-1.048,7.305-3.133
			l28.167-28.175v39.655c0,6.263,5.223,10.437,10.436,10.437c5.224,0,10.437-5.222,10.437-10.437v-39.655l28.176,28.175
			c2.082,2.085,5.218,3.133,7.305,3.133c2.082,0,5.218-1.048,7.305-3.133c4.174-4.174,4.174-11.478,0-15.655l-28.176-28.172h41.745
			c6.256,0,10.43-5.222,10.43-10.437C248.422,454.005,244.246,447.743,237.985,447.743z"/>
		<g>
			<path fill="#2C3E50" d="M425.83,313.122H112.755c-52.178,0-93.921-41.743-93.921-93.92s41.745-93.921,93.921-93.921
				c2.087,0,3.131,0,5.223,0C133.633,55.361,196.245,3.186,269.289,3.186c73.056,0,135.67,51.134,151.318,122.095
				c2.085,0,4.174,0,5.218,0c52.187,0,93.923,41.744,93.923,93.921C519.748,271.38,478.007,313.122,425.83,313.122z
				 M112.755,147.194c-39.655,0-72.006,32.352-72.006,72.005c0,39.655,32.352,72.009,72.006,72.009h313.072
				c39.656,0,72.006-32.354,72.006-72.009c0-39.654-32.35-72.005-72.006-72.005c-4.174,0-8.348,0-12.525,1.045
				c-3.13,0-6.259,0-8.348-2.085c-2.089-2.086-4.177-4.176-4.177-7.305c-9.393-64.7-65.744-113.753-131.495-113.753
				c-65.744,0-122.094,49.049-131.489,113.753c0,3.131-2.083,5.219-4.174,7.305c-2.092,2.085-5.223,2.085-8.349,2.085
				C120.06,147.194,116.929,147.194,112.755,147.194z"/>
		</g>
	</g>
</g>
</svg>
