<?xml version="1.0" encoding="utf-8"?>
<!-- Generator: Adobe Illustrator 16.0.0, SVG Export Plug-In . SVG Version: 6.00 Build 0)  -->
<!DOCTYPE svg PUBLIC "-//W3C//DTD SVG 1.1//EN" "http://www.w3.org/Graphics/SVG/1.1/DTD/svg11.dtd">
<svg version="1.1" id="Layer_1" xmlns="http://www.w3.org/2000/svg" xmlns:xlink="http://www.w3.org/1999/xlink" x="0px" y="0px"
	 width="538.582px" height="538.583px" viewBox="0 0 538.582 538.583" enable-background="new 0 0 538.582 538.583"
	 xml:space="preserve">
<g>
	<g>
		<g>
			<g>
				<path fill="#F3E59A" d="M454.984,349.927c-43.567,0-83.348-25.588-101.656-65.888c-12.628-27.512-13.895-58.214-3.786-87.003
					c10.102-28.787,30.938-51.176,58.093-63.971c11.365-5.756,23.993-8.956,36.619-10.233c2.529,0,5.682,1.278,6.314,3.837
					c1.259,2.56,0.635,5.757-1.26,7.679c-29.677,30.068-37.882,75.486-20.204,113.868c16.419,35.186,51.776,58.216,89.657,58.216
					c3.16,0,6.314,0,9.476-0.641c2.528,0,5.68,1.274,6.312,3.835c1.262,2.561,0.636,5.755-1.258,7.679
					c-8.841,8.956-19.575,16.633-30.939,21.751C487.188,346.088,471.401,349.927,454.984,349.927z"/>
			</g>
			<g>
				<path fill="#2C3E50" d="M480.871,346.801c-3.267,0-5.874-1.956-6.528-5.223c-0.655-3.919,1.304-7.187,5.229-7.84
					c7.185-1.303,14.368-3.917,20.897-7.188c4.571-1.956,9.143-4.569,13.713-7.838c-41.14-3.268-77.708-28.081-95.34-65.3
					c-17.63-37.874-13.059-81.625,10.444-114.93c-5.224,1.304-9.795,3.266-14.367,5.224c-28.729,13.713-48.977,39.181-56.158,69.872
					c-0.652,3.916-4.571,5.876-7.836,5.225c-3.918-0.652-5.878-4.571-5.229-7.839c7.84-35.263,30.693-63.993,63.346-79.666
					c11.754-5.224,24.157-9.143,37.223-10.448c2.611,0,5.872,1.306,6.53,3.919c1.303,2.612,0.652,5.875-1.305,7.836
					c-30.693,30.04-38.528,75.752-20.897,114.279c18.283,38.527,58.771,62.034,101.219,57.464c2.614,0,5.874,1.303,6.526,3.915
					c1.306,2.614,0.66,5.874-1.303,7.839c-9.142,9.143-20.243,16.33-31.999,22.202C497.197,341.576,488.713,345.493,480.871,346.801
					C480.617,346.797,480.871,346.801,480.871,346.801z"/>
			</g>
		</g>
		<path fill="#ECF0F1" d="M197.127,312.369c-26.205,0-47.579,21.446-47.579,47.73c0,26.287,21.374,47.73,47.579,47.73h206.866
			c26.202,0,47.578-21.443,47.578-47.73c0-26.284-21.376-47.73-47.578-47.73c-2.758,0-5.518,0-8.274,0.693
			c-2.069,0-4.138,0-5.52-1.383c-1.378-1.385-2.76-2.768-2.76-4.843c-6.202-42.888-43.444-75.398-86.883-75.398
			c-43.445,0-80.674,32.515-86.883,75.398c0,2.075-1.379,3.458-2.761,4.843c-1.378,1.385-3.451,1.385-5.517,1.385
			C201.954,312.369,199.195,312.369,197.127,312.369z"/>
		<g>
			<path fill="#2C3E50" d="M138.613,297.755H66.13c-3.917,0-6.53-3.267-6.53-6.529c0-3.266,3.265-6.53,6.53-6.53h72.483
				c3.913,0,6.525,3.269,6.525,6.53C145.141,294.492,142.529,297.755,138.613,297.755z"/>
		</g>
		<g>
			<path fill="#2C3E50" d="M102.698,357.179H7.358c-3.918,0-6.53-3.267-6.53-6.529c0-3.266,3.269-6.528,6.53-6.528h95.34
				c3.917,0,6.53,3.269,6.53,6.528C109.228,353.913,105.96,357.179,102.698,357.179z"/>
		</g>
		<g>
			<path fill="#2C3E50" d="M129.471,415.951H47.845c-3.917,0-6.53-3.268-6.53-6.528c0-3.266,3.265-6.532,6.53-6.532h81.626
				c3.912,0,6.525,3.269,6.525,6.532C135.999,412.687,133.386,415.951,129.471,415.951z"/>
		</g>
		<g>
			<path fill="#2C3E50" d="M398.51,416.604h-195.9c-32.657,0-58.771-26.122-58.771-58.771c0-32.651,26.121-58.771,58.771-58.771
				c1.303,0,1.958,0,3.265,0c9.801-43.75,48.977-76.399,94.686-76.399c45.711,0,84.893,31.998,94.687,76.399
				c1.303,0,2.612,0,3.266,0c32.652,0,58.771,26.122,58.771,58.771S430.508,416.604,398.51,416.604z M201.953,312.125
				c-24.81,0-45.052,20.239-45.052,45.055c0,24.814,20.243,45.058,45.052,45.058h195.908c24.813,0,45.052-20.243,45.052-45.058
				c0-24.815-20.238-45.055-45.052-45.055c-2.617,0-5.23,0-7.84,0.653c-1.96,0-3.918,0-5.226-1.304
				c-1.305-1.304-2.612-2.611-2.612-4.571c-5.876-40.486-41.14-71.177-82.284-71.177c-41.138,0-76.399,30.691-82.278,71.177
				c0,1.96-1.303,3.268-2.612,4.571c-1.306,1.304-3.266,1.304-5.224,1.304C207.18,312.776,204.567,312.125,201.953,312.125z"/>
		</g>
	</g>
</g>
</svg>
