<?xml version="1.0" encoding="utf-8"?>
<!-- Generator: Adobe Illustrator 16.0.0, SVG Export Plug-In . SVG Version: 6.00 Build 0)  -->
<!DOCTYPE svg PUBLIC "-//W3C//DTD SVG 1.1//EN" "http://www.w3.org/Graphics/SVG/1.1/DTD/svg11.dtd">
<svg version="1.1" id="Layer_1" xmlns="http://www.w3.org/2000/svg" xmlns:xlink="http://www.w3.org/1999/xlink" x="0px" y="0px"
	 width="538.582px" height="538.583px" viewBox="0 0 538.582 538.583" enable-background="new 0 0 538.582 538.583"
	 xml:space="preserve">
<g>
	<g>
		<path fill="#F3E59A" d="M407.112,278.44c-52.483,0-100.405-30.826-122.46-79.371c-15.212-33.143-16.737-70.128-4.562-104.808
			c12.168-34.678,37.27-61.65,69.981-77.062c13.692-6.934,28.903-10.789,44.111-12.328c3.049,0,6.847,1.54,7.609,4.623
			c1.516,3.083,0.763,6.935-1.518,9.25c-35.751,36.221-45.635,90.933-24.339,137.17c19.778,42.385,62.371,70.127,108.004,70.127
			c3.808,0,7.606,0,11.415-0.771c3.045,0,6.842,1.537,7.604,4.621c1.518,3.084,0.766,6.931-1.517,9.249
			c-10.649,10.789-23.58,20.036-37.271,26.202C445.906,273.815,426.887,278.44,407.112,278.44z"/>
	</g>
	<g>
		<path fill="#2C3E50" d="M438.297,274.674c-3.935,0-7.075-2.358-7.864-6.293c-0.79-4.72,1.57-8.655,6.299-9.443
			c8.653-1.57,17.308-4.717,25.173-8.659c5.507-2.356,11.013-5.504,16.52-9.442c-49.559-3.937-93.61-33.827-114.85-78.664
			c-21.237-45.624-15.73-98.328,12.581-138.449c-6.292,1.571-11.799,3.934-17.307,6.292c-34.607,16.52-58.999,47.2-67.65,84.17
			c-0.786,4.717-5.507,7.079-9.44,6.294c-4.719-0.786-7.079-5.507-6.299-9.443c9.442-42.479,36.973-77.088,76.309-95.969
			c14.159-6.292,29.101-11.013,44.839-12.586c3.147,0,7.075,1.573,7.866,4.721c1.571,3.146,0.788,7.078-1.57,9.439
			c-36.974,36.188-46.413,91.254-25.174,137.666c22.025,46.412,70.797,74.728,121.934,69.223c3.148,0,7.075,1.571,7.861,4.717
			c1.57,3.149,0.794,7.077-1.57,9.442c-11.014,11.013-24.387,19.674-38.546,26.747C457.965,268.378,447.742,273.097,438.297,274.674
			C437.99,274.668,438.297,274.674,438.297,274.674z"/>
	</g>
</g>
<g>
	<path fill="#ECF0F1" d="M96.237,232.354c-31.565,0-57.315,25.836-57.315,57.499c0,31.666,25.75,57.497,57.315,57.497h249.2
		c31.564,0,57.315-25.831,57.315-57.497c0-31.663-25.751-57.499-57.315-57.499c-3.321,0-6.646,0-9.968,0.835
		c-2.492,0-4.982,0-6.648-1.666c-1.66-1.667-3.324-3.332-3.324-5.833c-7.473-51.664-52.337-90.827-104.664-90.827
		c-52.336,0-97.185,39.166-104.663,90.827c0,2.501-1.661,4.166-3.324,5.833c-1.663,1.668-4.158,1.668-6.647,1.668
		C102.052,232.354,98.727,232.354,96.237,232.354z"/>
	<g>
		<g>
			<path fill="#2C3E50" d="M157.366,534.97c-0.787,0-2.36,0-3.147-0.787c-3.932-1.571-6.292-6.295-4.719-11.013l11.808-29.106
				c1.569-3.936,6.292-6.292,11.013-4.718c3.932,1.571,6.292,6.298,4.711,11.013l-11.8,29.104
				C163.659,533.393,160.513,534.97,157.366,534.97z"/>
		</g>
		<g>
			<path fill="#2C3E50" d="M183.326,472.038c-0.794,0-2.359,0-3.15-0.787c-3.936-1.571-6.296-6.298-4.715-11.013l31.465-76.305
				c1.574-3.938,6.3-6.294,11.013-4.719c3.938,1.571,6.3,6.296,4.721,11.014l-31.466,76.302
				C189.62,470.46,186.474,472.038,183.326,472.038z"/>
		</g>
		<g>
			<path fill="#2C3E50" d="M269.071,520.021c-0.786,0-2.359,0-3.146-0.789c-3.937-1.569-6.301-6.296-4.719-11.011l18.095-43.269
				c1.569-3.933,6.293-6.292,11.011-4.715c3.935,1.569,6.295,6.295,4.714,11.013l-18.087,43.263
				C275.365,517.66,272.219,520.021,269.071,520.021z"/>
		</g>
		<g>
			<path fill="#2C3E50" d="M300.537,444.506c-0.787,0-2.354,0-3.147-0.787c-3.934-1.572-6.292-6.298-4.713-11.015l20.455-48.771
				c1.571-3.937,6.299-6.294,11.013-4.719c3.938,1.571,6.299,6.297,4.718,11.014l-20.455,48.771
				C306.83,442.929,303.684,444.506,300.537,444.506z"/>
		</g>
		<g>
			<path fill="#2C3E50" d="M70.049,490.917c-0.787,0-2.354,0-3.146-0.789c-3.934-1.569-6.294-6.295-4.714-11.014l18.874-45.621
				c1.573-3.937,6.3-6.297,11.013-4.721c3.938,1.573,6.3,6.299,4.719,11.013l-18.88,45.624
				C76.343,489.341,73.196,490.917,70.049,490.917z"/>
		</g>
		<g>
			<path fill="#2C3E50" d="M103.088,410.678c-0.787,0-2.354,0-3.147-0.788c-3.934-1.57-5.507-6.295-3.934-10.225l6.294-14.948
				c1.573-3.938,6.293-6.299,11.013-4.719c3.937,1.57,6.292,6.295,4.719,11.013l-6.294,14.948
				C109.382,409.105,107.022,410.678,103.088,410.678z"/>
		</g>
		<g>
			<path fill="#2C3E50" d="M338.296,358.759H102.301c-39.332,0-70.798-31.467-70.798-70.798s31.468-70.795,70.798-70.795
				c1.573,0,2.36,0,3.937,0c11.8-52.708,58.998-92.038,114.059-92.038c55.062,0,102.271,38.546,114.064,92.038
				c1.573,0,3.147,0,3.935,0c39.339,0,70.799,31.466,70.799,70.795C409.095,327.292,377.629,358.759,338.296,358.759z
				 M102.301,232.895c-29.894,0-54.279,24.387-54.279,54.28c0,29.891,24.385,54.274,54.279,54.274h235.994
				c29.892,0,54.278-24.383,54.278-54.274c0-29.894-24.387-54.28-54.278-54.28c-3.146,0-6.295,0-9.441,0.79
				c-2.36,0-4.718,0-6.292-1.573c-1.576-1.572-3.15-3.146-3.15-5.506c-7.077-48.77-49.562-85.744-99.121-85.744
				c-49.559,0-92.034,36.974-99.117,85.744c0,2.36-1.574,3.934-3.147,5.506c-1.574,1.573-3.938,1.573-6.296,1.573
				C108.594,233.683,105.447,232.895,102.301,232.895z"/>
		</g>
	</g>
</g>
</svg>
