<?xml version="1.0" encoding="utf-8"?>
<!-- Generator: Adobe Illustrator 16.0.0, SVG Export Plug-In . SVG Version: 6.00 Build 0)  -->
<!DOCTYPE svg PUBLIC "-//W3C//DTD SVG 1.1//EN" "http://www.w3.org/Graphics/SVG/1.1/DTD/svg11.dtd">
<svg version="1.1" id="Layer_1" xmlns="http://www.w3.org/2000/svg" xmlns:xlink="http://www.w3.org/1999/xlink" x="0px" y="0px"
	 width="538.582px" height="538.583px" viewBox="0 0 538.582 538.583" enable-background="new 0 0 538.582 538.583"
	 xml:space="preserve">
<g>
	<path fill="#ECF0F1" d="M123.671,258.082c-37.765,0-68.569,30.907-68.569,68.788c0,37.885,30.804,68.789,68.569,68.789h298.131
		c37.763,0,68.57-30.904,68.57-68.789c0-37.881-30.808-68.788-68.57-68.788c-3.976,0-7.951,0-11.925,0.997
		c-2.982,0-5.963,0-7.954-1.992c-1.985-1.994-3.978-3.988-3.978-6.978c-8.938-61.808-62.609-108.664-125.215-108.664
		c-62.61,0-116.269,46.857-125.214,108.664c0,2.99-1.988,4.984-3.979,6.978c-1.985,1.995-4.973,1.995-7.951,1.995
		C130.628,258.082,126.653,258.082,123.671,258.082z"/>
	<g>
		<path fill="#2C3E50" d="M410.459,408.577H128.124c-47.06,0-84.7-37.646-84.7-84.7c0-47.057,37.646-84.7,84.7-84.7
			c1.879,0,2.819,0,4.709,0c14.118-63.055,70.583-109.17,136.458-109.17c65.88,0,122.347,46.115,136.457,110.111
			c1.879,0,3.766,0,4.709,0c47.057,0,84.7,37.644,84.7,84.7C495.162,371.872,457.513,408.577,410.459,408.577z M128.124,258.94
			c-35.761,0-64.937,29.174-64.937,64.936s29.175,64.938,64.937,64.938h282.335c35.763,0,64.937-29.177,64.937-64.938
			s-29.174-64.936-64.937-64.936c-3.768,0-7.531,0-11.297,0.94c-2.821,0-5.645,0-7.53-1.881c-1.88-1.88-3.766-3.764-3.766-6.588
			c-8.468-58.348-59.29-102.582-118.581-102.582c-59.291,0-110.107,44.234-118.584,102.582c0,2.824-1.879,4.708-3.764,6.588
			c-1.879,1.881-4.709,1.881-7.531,1.881C134.712,258.94,131.888,258.94,128.124,258.94z"/>
	</g>
</g>
</svg>
