<?xml version="1.0" encoding="utf-8"?>
<!-- Generator: Adobe Illustrator 16.0.0, SVG Export Plug-In . SVG Version: 6.00 Build 0)  -->
<!DOCTYPE svg PUBLIC "-//W3C//DTD SVG 1.1//EN" "http://www.w3.org/Graphics/SVG/1.1/DTD/svg11.dtd">
<svg version="1.1" id="Layer_1" xmlns="http://www.w3.org/2000/svg" xmlns:xlink="http://www.w3.org/1999/xlink" x="0px" y="0px"
	 width="538.582px" height="538.582px" viewBox="0 0 538.582 538.582" enable-background="new 0 0 538.582 538.582"
	 xml:space="preserve">
<g>
	<g>
		<path fill="#2C3E50" d="M152.492,426.827c-1.096,0-3.273,0-4.371-1.096c-5.462-2.178-8.732-8.736-6.544-15.283l60.033-142.996
			c2.18-5.463,8.739-8.736,15.283-6.551c5.464,2.181,8.739,8.736,6.549,15.281l-60.038,142.998
			C161.222,424.637,156.856,426.827,152.492,426.827z"/>
	</g>
	<g>
		<path fill="#2C3E50" d="M244.184,207.411c-1.094,0-3.273,0-4.37-1.091c-5.462-2.183-8.733-8.734-6.543-15.282L258.372,131
			c2.179-5.459,8.737-8.732,15.281-6.55c5.462,2.18,8.737,8.735,6.546,15.284l-25.104,60.036
			C252.918,205.229,248.55,207.411,244.184,207.411z"/>
	</g>
	<g>
		<path fill="#2C3E50" d="M279.113,412.633c-1.096,0-3.273,0-4.365-1.096c-5.462-2.178-8.736-8.731-6.549-15.282l14.19-32.743
			c2.178-5.462,8.734-8.733,15.283-6.543c5.462,2.177,8.733,8.733,6.543,15.282l-14.185,32.743
			C287.85,409.354,284.573,412.633,279.113,412.633z"/>
	</g>
	<g>
		<path fill="#2C3E50" d="M323.871,306.746c-1.095,0-3.272,0-4.37-1.095c-5.46-2.178-8.731-8.735-6.543-15.282l72.043-171.38
			c2.18-5.461,8.737-8.733,15.282-6.551c5.462,2.185,8.737,8.736,6.548,15.283L334.785,300.2
			C332.602,304.566,328.236,306.746,323.871,306.746z"/>
	</g>
	<g>
		<path fill="#2C3E50" d="M38.963,408.268c-1.098,0-3.275,0-4.37-1.093c-5.464-2.18-8.735-8.739-6.547-15.282l28.384-68.773
			c2.18-5.462,8.737-8.735,15.283-6.548c5.462,2.182,8.737,8.737,6.545,15.285l-28.384,68.771
			C47.693,406.081,43.329,408.268,38.963,408.268z"/>
	</g>
	<g>
		<path fill="#2C3E50" d="M102.275,257.623c-1.094,0-3.27,0-4.366-1.091c-5.462-2.18-8.736-8.734-6.545-15.282l33.835-79.687
			c2.181-5.461,8.739-8.734,15.283-6.55c5.464,2.182,8.739,8.737,6.551,15.284l-33.841,79.684
			C111.009,255.441,106.644,257.623,102.275,257.623z"/>
	</g>
	<g>
		<path fill="#2C3E50" d="M409.017,392.984c-1.095,0-3.275,0-4.37-1.092c-5.462-2.18-8.735-8.739-5.462-15.283l27.292-63.31
			c2.18-5.464,8.735-8.737,15.282-5.464c5.462,2.182,8.734,8.737,5.462,15.283l-27.293,63.312
			C417.749,390.798,413.383,392.984,409.017,392.984z"/>
	</g>
	<g>
		<path fill="#2C3E50" d="M472.329,242.342c-1.095,0-3.273,0-4.368-1.091c-5.46-2.178-8.733-8.734-6.547-15.282l27.29-65.497
			c2.181-5.461,8.737-8.734,15.284-6.549c5.464,2.182,8.735,8.736,6.547,15.283l-27.29,65.497
			C481.058,239.069,476.693,242.342,472.329,242.342z"/>
	</g>
</g>
</svg>
