<?xml version="1.0" encoding="utf-8"?>
<!-- Generator: Adobe Illustrator 16.0.0, SVG Export Plug-In . SVG Version: 6.00 Build 0)  -->
<!DOCTYPE svg PUBLIC "-//W3C//DTD SVG 1.1//EN" "http://www.w3.org/Graphics/SVG/1.1/DTD/svg11.dtd">
<svg version="1.1" id="Layer_1" xmlns="http://www.w3.org/2000/svg" xmlns:xlink="http://www.w3.org/1999/xlink" x="0px" y="0px"
	 width="538.582px" height="538.582px" viewBox="0 0 538.582 538.582" enable-background="new 0 0 538.582 538.582"
	 xml:space="preserve">
<g>
	<path fill="#2C3E50" d="M516.916,90.497H384.445c-2.594,0-4.33,1.729-4.33,4.328c0,2.601,1.727,4.333,4.33,4.333h133.34
		c2.594,0,4.332-1.731,4.332-4.333C522.117,92.225,519.513,90.497,516.916,90.497z"/>
	<path fill="#2C3E50" d="M273.619,90.497h-91.783c-2.598,0-4.331,1.729-4.331,4.328c0,2.601,1.728,4.333,4.331,4.333h90.912
		c2.598,0,4.334-1.731,4.334-4.333C277.082,92.225,275.351,90.497,273.619,90.497z"/>
	<path fill="#2C3E50" d="M48.506,94.823c0,2.598,1.73,4.334,4.331,4.334h89.177c2.596,0,4.333-1.73,4.333-4.334
		c0-2.602-1.731-4.329-4.333-4.329H52.837C50.237,90.497,48.506,92.226,48.506,94.823z"/>
	<path fill="#2C3E50" d="M432.064,133.785H295.261c-2.596,0-4.332,1.729-4.332,4.332c0,2.599,1.73,4.331,4.332,4.331h136.803
		c2.598,0,4.332-1.729,4.332-4.331C436.394,135.519,434.662,133.785,432.064,133.785z"/>
	<path fill="#2C3E50" d="M16.471,138.115c0,2.595,1.727,4.331,4.328,4.331h204.333c2.596,0,4.331-1.73,4.331-4.331
		s-1.728-4.332-4.331-4.332H20.796C18.2,133.785,16.471,136.384,16.471,138.115z"/>
	<path fill="#2C3E50" d="M477.088,182.272c0-2.597-1.73-4.329-4.332-4.329H337.687c-2.596,0-4.332,1.728-4.332,4.329
		s1.73,4.333,4.332,4.333h135.068C474.49,186.604,477.088,184.869,477.088,182.272z"/>
	<path fill="#2C3E50" d="M174.049,182.272c0,2.599,1.728,4.333,4.331,4.333h114.288c2.596,0,4.328-1.731,4.328-4.333
		c0-2.603-1.729-4.329-4.328-4.329H178.379C176.647,177.945,174.049,179.673,174.049,182.272z"/>
	<path fill="#2C3E50" d="M155.866,182.272c0-2.597-1.73-4.329-4.333-4.329H82.271c-2.599,0-4.331,1.728-4.331,4.329
		s1.727,4.333,4.331,4.333h69.266C154.134,186.604,155.866,184.869,155.866,182.272z"/>
	<path fill="#2C3E50" d="M516.916,221.233h-70.133c-2.598,0-4.332,1.73-4.332,4.329c0,2.602,1.73,4.334,4.332,4.334h70.133
		c2.598,0,4.332-1.731,4.332-4.334C521.242,222.97,519.513,221.233,516.916,221.233z"/>
	<path fill="#2C3E50" d="M343.752,225.564c0-2.597-1.73-4.331-4.334-4.331H169.722c-2.599,0-4.331,1.73-4.331,4.331
		c0,2.6,1.727,4.332,4.331,4.332h169.7C342.019,229.894,343.752,228.158,343.752,225.564z"/>
	<path fill="#2C3E50" d="M20.797,229.894H58.89c2.598,0,4.333-1.729,4.333-4.334c0-2.593-1.73-4.327-4.333-4.327H20.797
		c-2.596,0-4.332,1.728-4.332,4.327C16.471,228.158,18.2,229.894,20.797,229.894z"/>
	<path fill="#2C3E50" d="M390.506,274.051h77.059c2.594,0,4.33-1.729,4.33-4.332c0-2.598-1.73-4.332-4.33-4.332h-77.059
		c-2.594,0-4.33,1.729-4.33,4.332C386.176,272.32,387.908,274.051,390.506,274.051z"/>
	<path fill="#2C3E50" d="M309.982,269.72c0-2.597-1.73-4.332-4.332-4.332H172.312c-2.598,0-4.33,1.729-4.33,4.332
		c0,2.602,1.728,4.333,4.33,4.333H305.65C308.252,274.051,309.982,271.453,309.982,269.72z"/>
	<path fill="#2C3E50" d="M45.908,265.392c-2.598,0-4.331,1.729-4.331,4.333c0,2.601,1.729,4.33,4.331,4.33h83.118
		c2.597,0,4.331-1.73,4.331-4.33c0-2.602-1.729-4.333-4.331-4.333H45.908z"/>
	<path fill="#2C3E50" d="M516.916,308.683H405.224c-2.598,0-4.332,1.729-4.332,4.328c0,2.604,1.729,4.334,4.332,4.334h111.691
		c2.598,0,4.332-1.73,4.332-4.334C521.244,310.412,519.513,308.683,516.916,308.683z"/>
	<path fill="#2C3E50" d="M225.998,317.342h98.701c2.596,0,4.334-1.73,4.334-4.334c0-2.598-1.73-4.328-4.334-4.328h-98.701
		c-2.598,0-4.333,1.727-4.333,4.328C221.667,315.609,223.401,317.342,225.998,317.342z"/>
	<path fill="#2C3E50" d="M175.781,313.011c0-2.594-1.727-4.33-4.331-4.33H71.881c-2.598,0-4.333,1.729-4.333,4.33
		s1.73,4.334,4.333,4.334h99.569C174.049,317.342,175.781,315.609,175.781,313.011z"/>
	<path fill="#2C3E50" d="M516.916,351.974H330.763c-2.598,0-4.332,1.73-4.332,4.334c0,2.594,1.729,4.33,4.332,4.33h187.02
		c2.594,0,4.33-1.73,4.33-4.33C522.109,353.705,519.513,351.974,516.916,351.974z"/>
	<path fill="#2C3E50" d="M298.728,356.306c0-2.602-1.732-4.334-4.334-4.334H172.314c-2.598,0-4.33,1.729-4.33,4.334
		c0,2.594,1.728,4.328,4.33,4.328h122.081C296.996,360.635,298.728,358.902,298.728,356.306z"/>
	<path fill="#2C3E50" d="M20.797,360.635h76.194c2.596,0,4.332-1.73,4.332-4.33s-1.729-4.334-4.332-4.334H20.797
		c-2.596,0-4.332,1.729-4.332,4.334C16.471,358.902,18.2,360.635,20.797,360.635z"/>
	<path fill="#2C3E50" d="M516.916,396.133H405.224c-2.598,0-4.332,1.729-4.332,4.33c0,2.598,1.729,4.334,4.332,4.334h111.691
		c2.598,0,4.332-1.732,4.332-4.334C521.242,397.863,519.513,396.133,516.916,396.133z"/>
	<path fill="#2C3E50" d="M351.543,400.461c0-2.598-1.727-4.328-4.33-4.328H226.864c-2.596,0-4.331,1.729-4.331,4.328
		c0,2.598,1.729,4.334,4.331,4.334h120.349C349.812,404.793,351.543,403.058,351.543,400.461z"/>
	<path fill="#2C3E50" d="M164.527,396.133h-106.5c-2.598,0-4.331,1.729-4.331,4.33c0,2.598,1.727,4.334,4.331,4.334h106.5
		c2.594,0,4.329-1.732,4.329-4.334C168.854,397.863,167.122,396.133,164.527,396.133z"/>
	<path fill="#2C3E50" d="M451.976,439.424H303.92c-2.598,0-4.332,1.729-4.332,4.332c0,2.596,1.73,4.332,4.332,4.332h148.057
		c2.598,0,4.332-1.73,4.332-4.332C456.308,441.152,454.576,439.424,451.976,439.424z"/>
	<path fill="#2C3E50" d="M219.938,439.424h-32.034c-2.598,0-4.331,1.729-4.331,4.332c0,2.596,1.727,4.332,4.331,4.332h32.034
		c2.597,0,4.331-1.73,4.331-4.332C224.269,441.152,222.533,439.424,219.938,439.424z"/>
	<path fill="#2C3E50" d="M83.139,439.424H20.8c-2.595,0-4.331,1.729-4.331,4.332c0,2.596,1.729,4.332,4.331,4.332h62.339
		c2.595,0,4.331-1.73,4.331-4.332C87.466,441.154,85.737,439.424,83.139,439.424z"/>
</g>
</svg>
