<?xml version="1.0" encoding="utf-8"?>
<!-- Generator: Adobe Illustrator 16.0.0, SVG Export Plug-In . SVG Version: 6.00 Build 0)  -->
<!DOCTYPE svg PUBLIC "-//W3C//DTD SVG 1.1//EN" "http://www.w3.org/Graphics/SVG/1.1/DTD/svg11.dtd">
<svg version="1.1" id="Layer_1" xmlns="http://www.w3.org/2000/svg" xmlns:xlink="http://www.w3.org/1999/xlink" x="0px" y="0px"
	 width="538.582px" height="538.582px" viewBox="0 0 538.582 538.582" enable-background="new 0 0 538.582 538.582"
	 xml:space="preserve">
<g>
	<path fill="#2C3E50" d="M454.261,259.9h-35.74l23.232-15.189c4.471-2.682,5.359-8.937,2.682-12.511
		c-2.682-4.468-8.938-5.358-12.512-2.681L383.672,259.9H291.64l64.332-64.333l55.396-12.51c5.359-0.896,8.039-6.255,7.152-10.727
		c-0.896-5.358-6.256-8.041-10.727-7.148l-26.803,6.258l25.018-25.021c3.574-3.577,3.574-9.832,0-13.407
		c-3.574-3.573-9.828-3.573-13.406,0l-25.02,25.02l6.254-26.803c0.898-5.359-1.783-9.83-7.148-10.727
		c-5.359-0.894-9.83,1.787-10.727,7.149l-12.51,55.398l-65.227,64.335v-92.034l30.377-48.252c2.682-4.471,1.783-9.83-2.68-12.51
		c-4.473-2.682-9.83-1.785-12.51,2.68l-15.189,23.232V84.765c0-5.361-4.471-8.938-8.935-8.938c-4.469,0-8.935,4.472-8.935,8.938
		v35.741l-15.189-23.232c-2.68-4.471-8.935-5.359-12.511-2.68c-4.471,2.68-5.358,8.934-2.678,12.51l30.378,48.252v92.034
		l-64.332-64.335l-12.511-55.398c-0.896-5.359-6.255-8.04-10.726-7.149c-5.358,0.896-8.039,6.255-7.152,10.726l6.256,26.805
		l-25.019-25.021c-3.575-3.573-9.83-3.573-13.404,0c-3.576,3.575-3.576,9.83,0,13.407l25.021,25.02l-26.806-6.257
		c-5.358-0.896-9.829,1.785-10.724,7.149c-0.896,5.362,1.784,9.83,7.149,10.726l55.398,12.51l64.333,64.333h-92.928l-47.358-30.381
		c-4.471-2.679-9.829-1.784-12.509,2.682c-2.681,4.47-1.784,9.828,2.68,12.51l23.234,15.189H85.222
		c-5.359,0-8.936,4.471-8.936,8.936c0,4.468,4.471,8.935,8.936,8.935h35.742L97.73,292.965c-4.47,2.68-5.36,8.935-2.68,12.51
		c1.784,2.68,4.47,4.469,8.039,4.469c1.784,0,3.574-0.893,5.359-1.782l48.251-30.378h91.145l-64.333,64.332l-57.188,13.403
		c-5.359,0.896-8.04,6.254-7.152,10.727c0.896,4.471,4.473,7.148,8.937,7.148c0.896,0,1.784,0,1.784,0l26.803-6.257l-25.02,25.02
		c-3.573,3.578-3.573,9.832,0,13.405c1.784,1.787,4.472,2.684,6.256,2.684c1.783,0,4.471-0.896,6.254-2.684l26.806-24.122
		l-6.254,26.806c-0.897,5.356,1.784,9.826,7.146,10.725c0.897,0,1.785,0,1.785,0c4.471,0,8.039-2.68,8.936-7.15l12.51-55.397
		l65.229-64.332v91.142l-30.381,48.252c-2.677,4.469-1.784,9.83,2.682,12.51c1.783,0.896,3.573,1.783,5.358,1.783
		c2.68,0,6.254-1.783,8.04-4.468l15.188-23.233v35.741c0,5.362,4.471,8.938,8.935,8.938c4.471,0,8.936-4.472,8.936-8.938v-35.741
		l15.189,23.233c1.783,2.68,4.469,4.468,8.039,4.468c1.785,0,3.576-0.891,5.359-1.783c4.471-2.68,5.359-8.937,2.68-12.51
		l-32.168-48.252v-91.146l64.332,64.332l12.512,55.397c0.898,4.471,4.473,7.15,8.936,7.15c0.896,0,1.787,0,1.787,0
		c5.357-0.896,8.035-6.257,7.148-10.726l-5.361-26.805l25.02,25.021c1.785,1.784,4.471,2.68,6.254,2.68
		c1.785,0,4.473-0.896,6.256-2.68c3.578-3.574,3.578-9.83,0-13.404l-25.02-25.02l26.805,6.254c0.895,0,1.785,0,1.785,0
		c4.471,0,8.041-2.681,8.934-7.149c0.898-5.36-1.783-9.831-7.148-10.726l-55.389-12.512l-64.33-64.332h91.158l48.254,30.377
		c1.785,0.896,3.578,1.787,5.361,1.787c2.68,0,6.254-1.787,8.039-4.473c2.682-4.468,1.785-9.827-2.678-12.51l-23.234-15.189h35.742
		c5.359,0,8.934-4.469,8.934-8.933C462.304,266.155,458.732,259.9,454.261,259.9z"/>
</g>
</svg>
