<?xml version="1.0" encoding="utf-8"?>
<!-- Generator: Adobe Illustrator 16.0.0, SVG Export Plug-In . SVG Version: 6.00 Build 0)  -->
<!DOCTYPE svg PUBLIC "-//W3C//DTD SVG 1.1//EN" "http://www.w3.org/Graphics/SVG/1.1/DTD/svg11.dtd">
<svg version="1.1" id="Layer_1" xmlns="http://www.w3.org/2000/svg" xmlns:xlink="http://www.w3.org/1999/xlink" x="0px" y="0px"
	 width="538.582px" height="538.582px" viewBox="0 0 538.582 538.582" enable-background="new 0 0 538.582 538.582"
	 xml:space="preserve">
<g>
	<path fill="#ECF0F1" d="M136.096,117.226c-33.918,0-61.588,27.761-61.588,61.782c0,34.027,27.668,61.783,61.588,61.783h267.771
		c33.917,0,61.587-27.756,61.587-61.783c0-34.021-27.67-61.782-61.587-61.782c-3.569,0-7.142,0-10.711,0.896
		c-2.678,0-5.354,0-7.144-1.788c-1.784-1.792-3.572-3.582-3.572-6.27c-8.029-55.515-56.233-97.598-112.463-97.598
		c-56.237,0-104.43,42.085-112.464,97.598c0,2.688-1.785,4.478-3.572,6.27c-1.783,1.791-4.468,1.791-7.144,1.791
		C142.344,117.226,138.774,117.226,136.096,117.226z"/>
	<g>
		<g>
			<g>
				<path fill="#2C3E50" d="M229.563,377.099c-0.853,0-2.536,0-3.382-0.848c-4.231-1.689-6.771-6.764-5.071-11.834l33.812-81.99
					c1.69-4.23,6.771-6.764,11.834-5.07c4.231,1.688,6.771,6.766,5.071,11.834l-33.811,81.992
					C236.323,374.568,232.942,377.099,229.563,377.099z"/>
			</g>
			<g>
				<path fill="#2C3E50" d="M355.51,347.515c-0.851,0-2.534,0-3.38-0.852c-4.23-1.686-6.767-6.762-5.072-11.834l21.979-52.402
					c1.689-4.23,6.768-6.766,11.834-5.072c4.229,1.689,6.768,6.768,5.07,11.834l-22.822,52.408
					C362.272,344.978,358.891,347.515,355.51,347.515z"/>
			</g>
			<g>
				<path fill="#2C3E50" d="M107.841,397.39c-0.847,0-2.53,0-3.383-0.846c-4.225-1.689-6.762-6.768-5.063-11.834l20.281-49.025
					c1.689-4.23,6.768-6.768,11.838-5.072c4.229,1.689,6.764,6.768,5.066,11.834l-20.287,49.023
					C114.604,395.697,111.223,397.39,107.841,397.39z"/>
			</g>
			<g>
				<path fill="#2C3E50" d="M143.344,311.168c-0.854,0-2.536,0-3.39-0.844c-4.227-1.691-6.761-6.768-5.063-11.834l6.763-16.062
					c1.69-4.232,6.763-6.766,11.834-5.07c4.228,1.688,6.763,6.762,5.071,11.834l-6.771,16.061
					C150.106,308.633,146.725,311.168,143.344,311.168z"/>
			</g>
			<g>
				<path fill="#2C3E50" d="M396.08,254.534H142.497c-42.264,0-76.074-33.812-76.074-76.073c0-43.109,36.353-78.611,80.308-76.074
					C159.41,45.752,210.126,3.49,269.29,3.49c59.166,0,109.895,41.418,122.565,98.896c1.688,0,3.381,0,4.227,0
					c42.27,0,76.077,33.812,76.077,76.074C472.157,220.724,438.345,254.534,396.08,254.534z M142.497,120.137
					c-32.121,0-58.323,26.205-58.323,58.325c0,32.121,26.202,58.323,58.323,58.323H396.08c32.122,0,58.324-26.202,58.324-58.323
					c0-32.12-26.203-58.325-58.324-58.325c-3.38,0-6.761,0-10.142,0.846c-2.538,0-5.072,0-6.765-1.688
					c-1.688-1.69-3.389-3.384-3.389-5.917c-7.602-52.406-53.251-92.138-106.504-92.138s-98.895,39.729-106.505,92.138
					c0,2.533-1.69,4.227-3.382,5.917c-1.69,1.688-4.231,1.688-6.768,1.688C148.414,120.137,145.033,120.137,142.497,120.137z"/>
			</g>
		</g>
		<path fill="#2C3E50" d="M351.361,428.59h-32.126l22.822-22.822c3.388-3.381,3.388-9.299,0-12.68c-3.383-3.383-9.3-3.383-12.682,0
			l-22.821,22.822v-32.121c0-5.07-4.229-8.449-8.453-8.449c-4.228,0-8.451,4.227-8.451,8.449v32.121l-22.818-22.822
			c-3.382-3.383-9.305-3.383-12.686,0c-3.382,3.381-3.382,9.299,0,12.68l22.821,22.822h-32.119c-5.073,0-8.454,4.227-8.454,8.451
			c0,4.229,4.23,8.453,8.454,8.453h32.119l-22.821,22.818c-3.382,3.383-3.382,9.303,0,12.684c1.689,1.686,4.23,2.533,5.918,2.533
			c1.688,0,4.23-0.848,5.917-2.533l22.82-22.818v32.115c0,5.07,4.231,8.453,8.453,8.453c4.228,0,8.451-4.23,8.451-8.453v-32.115
			l22.824,22.818c1.686,1.686,4.227,2.533,5.917,2.533c1.686,0,4.227-0.848,5.917-2.533c3.38-3.381,3.38-9.301,0-12.684
			l-20.288-21.979h32.122c5.064,0,8.452-4.232,8.452-8.451C360.657,433.66,356.427,428.59,351.361,428.59z"/>
		<path fill="#2C3E50" d="M181.454,464.092h-32.118l22.813-22.822c3.388-3.379,3.388-9.299,0-12.68
			c-3.381-3.383-9.298-3.383-12.68,0l-22.822,22.82v-32.119c0-5.07-4.228-8.449-8.445-8.449c-4.23,0-8.452,4.229-8.452,8.449v32.119
			l-22.821-21.98c-3.383-3.381-9.3-3.381-12.681,0c-3.382,3.383-3.382,9.301,0,12.686l22.814,22.818H74.949
			c-5.071,0-8.452,4.229-8.452,8.453c0,4.227,4.228,8.449,8.452,8.449h32.113l-22.814,22.816c-3.382,3.385-3.382,9.301,0,12.684
			c1.688,1.688,4.228,2.535,5.917,2.535c1.688,0,4.228-0.85,5.917-2.535l22.814-22.82v32.123c0,5.068,4.23,8.453,8.453,8.453
			c4.23,0,8.453-4.232,8.453-8.453v-32.123l22.822,22.82c1.688,1.688,4.228,2.535,5.917,2.535c1.688,0,4.228-0.85,5.917-2.535
			c3.381-3.383,3.381-9.299,0-12.684l-22.821-22.816h33.812c5.065,0,8.446-4.229,8.446-8.449
			C189.907,469.162,186.526,464.092,181.454,464.092z"/>
	</g>
</g>
</svg>
