<?xml version="1.0" encoding="utf-8"?>
<!-- Generator: Adobe Illustrator 16.0.0, SVG Export Plug-In . SVG Version: 6.00 Build 0)  -->
<!DOCTYPE svg PUBLIC "-//W3C//DTD SVG 1.1//EN" "http://www.w3.org/Graphics/SVG/1.1/DTD/svg11.dtd">
<svg version="1.1" id="Layer_1" xmlns="http://www.w3.org/2000/svg" xmlns:xlink="http://www.w3.org/1999/xlink" x="0px" y="0px"
	 width="538.582px" height="538.583px" viewBox="0 0 538.582 538.583" enable-background="new 0 0 538.582 538.583"
	 xml:space="preserve">
<g>
	<g>
		<path fill="#F3E59A" d="M329.346,285.833c-13.863,0-27.726-3.082-40.819-9.246c-50.057-22.335-72.395-81.638-49.293-131.698
			c16.173-35.428,51.604-58.529,90.877-58.529c13.866,0,27.731,3.08,40.822,9.243c50.057,22.335,72.396,81.64,49.294,131.696
			C404.055,262.729,368.627,285.833,329.346,285.833z"/>
	</g>
	<g>
		<g>
			<path fill="#2C3E50" d="M401.508,249.172c-1.532,0-3.074-0.77-4.609-1.536c-3.843-2.303-3.843-7.68-1.532-11.524
				c3.843-5.378,6.909-10.756,9.987-16.135c9.22-19.978,9.981-43.023,2.299-63.769c-7.677-20.743-23.042-37.646-43.792-46.098
				c-31.502-14.6-69.148-6.914-93.733,17.67c-3.074,3.073-8.453,3.073-11.527,0c-3.073-3.073-3.073-8.452,0-11.525
				c29.195-29.963,73.756-38.415,112.173-20.743c23.813,10.756,42.25,30.733,52.243,55.318c9.224,24.584,8.451,51.475-2.305,76.063
				c-3.073,6.91-6.91,13.83-11.525,19.207C406.117,247.637,403.812,249.172,401.508,249.172z"/>
		</g>
	</g>
</g>
<g>
	<path fill="#ECF0F1" d="M90.28,238.038c-31.61,0-57.4,25.872-57.4,57.584c0,31.714,25.788,57.583,57.4,57.583h249.578
		c31.608,0,57.401-25.867,57.401-57.583c0-31.71-25.787-57.584-57.401-57.584c-3.328,0-6.656,0-9.983,0.835
		c-2.496,0-4.99,0-6.659-1.667c-1.661-1.669-3.329-3.339-3.329-5.842c-7.482-51.741-52.407-90.965-104.819-90.965
		c-52.413,0-97.333,39.224-104.82,90.965c0,2.5-1.664,4.172-3.33,5.841c-1.664,1.669-4.166,1.669-6.658,1.669
		C96.104,238.038,92.777,238.038,90.28,238.038z"/>
	<g>
		<g>
			<path fill="#2C3E50" d="M149.965,535.748c-0.769,0-2.306,0-3.073-0.769c-3.841-1.535-6.147-6.148-4.61-10.757l11.533-28.427
				c1.533-3.844,6.146-6.146,10.756-4.608c3.84,1.535,6.146,6.151,4.608,10.757l-11.531,28.424
				C156.112,534.208,153.038,535.748,149.965,535.748z"/>
		</g>
		<g>
			<path fill="#2C3E50" d="M175.322,474.283c-0.77,0-2.305,0-3.075-0.769c-3.846-1.535-6.152-6.15-4.608-10.756l30.732-74.526
				c1.537-3.843,6.153-6.146,10.755-4.607c3.845,1.534,6.154,6.148,4.61,10.757l-30.732,74.524
				C181.466,472.743,178.394,474.283,175.322,474.283z"/>
		</g>
		<g>
			<path fill="#2C3E50" d="M259.064,521.147c-0.768,0-2.304,0-3.073-0.771c-3.846-1.535-6.148-6.146-4.609-10.756l17.671-42.254
				c1.532-3.844,6.145-6.146,10.755-4.605c3.841,1.533,6.146,6.148,4.602,10.756l-17.666,42.254
				C265.21,519.615,262.136,521.147,259.064,521.147z"/>
		</g>
		<g>
			<path fill="#2C3E50" d="M289.797,447.391c-0.775,0-2.306,0-3.081-0.767c-3.84-1.535-6.146-6.15-4.603-10.756l19.977-47.636
				c1.535-3.844,6.146-6.146,10.757-4.608c3.846,1.534,6.152,6.148,4.608,10.757l-19.979,47.633
				C295.94,445.853,292.868,447.391,289.797,447.391z"/>
		</g>
		<g>
			<path fill="#2C3E50" d="M64.685,493.492c-0.775,0-2.305,0-3.079-0.771c-3.842-1.535-6.147-6.151-4.604-10.757l18.439-44.558
				c1.533-3.845,6.147-6.15,10.756-4.609c3.843,1.537,6.147,6.147,4.603,10.758l-18.438,44.558
				C70.832,491.182,67.759,493.492,64.685,493.492z"/>
		</g>
		<g>
			<path fill="#2C3E50" d="M96.954,414.355c-0.775,0-2.304,0-3.081-0.771c-3.84-1.534-6.146-6.146-4.602-10.756l6.147-14.601
				c1.535-3.845,6.146-6.146,10.755-4.605c3.842,1.532,6.147,6.149,4.61,10.756l-6.154,14.6
				C103.101,412.821,100.796,414.355,96.954,414.355z"/>
		</g>
		<g>
			<path fill="#2C3E50" d="M326.679,363.649H96.184c-38.415,0-69.147-30.732-69.147-69.146c0-38.414,30.733-69.146,69.147-69.146
				c1.536,0,2.305,0,3.845,0c11.524-51.475,57.622-89.89,111.398-89.89s99.884,37.646,111.402,89.89c1.536,0,3.074,0,3.846,0
				c38.414,0,69.14,30.733,69.14,69.146C395.82,332.917,365.089,363.649,326.679,363.649z M96.184,240.72
				c-29.195,0-53.013,23.817-53.013,53.013c0,29.196,23.818,53.01,53.013,53.01h230.494c29.188,0,53.007-23.813,53.007-53.01
				c0-29.196-23.816-53.013-53.007-53.013c-3.079,0-6.152,0-9.223,0.769c-2.305,0-4.608,0-6.146-1.536
				c-1.539-1.536-3.08-3.073-3.08-5.378c-6.909-47.634-48.401-83.746-96.804-83.746c-48.403,0-89.888,36.111-96.805,83.746
				c0,2.305-1.533,3.842-3.074,5.378c-1.536,1.536-3.845,1.536-6.146,1.536C102.332,241.489,99.257,240.72,96.184,240.72z"/>
		</g>
		<g>
			<path fill="#2C3E50" d="M500.308,271.45c-0.77,0-2.306,0-3.074-0.77l-45.329-20.744c-3.842-1.536-6.147-6.914-3.842-10.755
				c1.532-3.844,6.909-6.147,10.755-3.844l45.33,20.744c3.842,1.537,6.146,6.916,3.842,10.756
				C506.462,269.916,503.381,271.45,500.308,271.45z"/>
		</g>
		<g>
			<path fill="#2C3E50" d="M385.839,67.853c-0.775,0-2.306,0-3.08-0.768c-3.842-1.537-6.146-6.915-3.842-10.756l20.743-45.332
				c1.533-3.842,6.91-6.146,10.757-3.842c3.843,1.536,6.146,6.914,3.843,10.756l-20.745,45.332
				C391.979,66.317,388.906,67.853,385.839,67.853z"/>
		</g>
		<g>
			<path fill="#2C3E50" d="M458.058,145.45c-3.079,0-6.153-2.305-7.684-5.378c-1.536-3.842,0.769-8.452,4.604-9.988l46.104-17.668
				c3.84-1.537,8.45,0.769,9.98,4.608c1.535,3.844-0.77,8.451-4.603,9.988l-46.104,17.67
				C460.357,145.45,459.589,145.45,458.058,145.45z"/>
		</g>
		<g>
			<path fill="#2C3E50" d="M280.575,64.781c-3.073,0-6.146-2.305-7.682-5.378l-17.671-46.098c-1.535-3.844,0.771-8.453,4.604-9.989
				c3.845-1.536,8.457,0.768,9.988,4.609l17.669,46.099c1.533,3.842-0.775,8.451-4.607,9.988
				C282.113,64.781,281.343,64.781,280.575,64.781z"/>
		</g>
	</g>
</g>
</svg>
