<?xml version="1.0" encoding="utf-8"?>
<!-- Generator: Adobe Illustrator 16.0.0, SVG Export Plug-In . SVG Version: 6.00 Build 0)  -->
<!DOCTYPE svg PUBLIC "-//W3C//DTD SVG 1.1//EN" "http://www.w3.org/Graphics/SVG/1.1/DTD/svg11.dtd">
<svg version="1.1" id="Layer_1" xmlns="http://www.w3.org/2000/svg" xmlns:xlink="http://www.w3.org/1999/xlink" x="0px" y="0px"
	 width="538.582px" height="538.583px" viewBox="0 0 538.582 538.583" enable-background="new 0 0 538.582 538.583"
	 xml:space="preserve">
<g>
	<g>
		<path fill="#F3E59A" d="M409.987,283.463c-53.584,0-102.511-31.471-125.028-81.035c-15.531-33.838-17.089-71.599-4.657-107.006
			c12.423-35.405,38.051-62.942,71.449-78.678C365.729,9.666,381.26,5.73,396.787,4.158c3.112,0,6.99,1.572,7.769,4.719
			c1.549,3.148,0.779,7.081-1.549,9.444c-36.501,36.981-46.592,92.84-24.85,140.048c20.193,43.273,63.68,71.598,110.269,71.598
			c3.888,0,7.767,0,11.655-0.788c3.109,0,6.985,1.569,7.763,4.718c1.55,3.149,0.781,7.077-1.548,9.443
			c-10.873,11.015-24.074,20.457-38.053,26.752C449.595,278.741,430.177,283.463,409.987,283.463z"/>
	</g>
	<g>
		<path fill="#2C3E50" d="M441.826,279.619c-4.018,0-7.225-2.406-8.029-6.425c-0.807-4.819,1.604-8.836,6.431-9.641
			c8.835-1.603,17.67-4.816,25.7-8.841c5.623-2.405,11.244-5.62,16.867-9.64c-50.599-4.019-95.574-34.537-117.26-80.313
			c-21.682-46.581-16.061-100.391,12.846-141.353c-6.424,1.604-12.046,4.017-17.67,6.425
			c-35.333,16.866-60.236,48.188-69.069,85.935c-0.804,4.816-5.622,7.227-9.638,6.426c-4.818-0.803-7.229-5.622-6.432-9.642
			c9.642-43.37,37.749-78.706,77.909-97.982c14.457-6.425,29.712-11.244,45.779-12.85c3.214,0,7.224,1.605,8.032,4.819
			c1.604,3.212,0.804,7.227-1.604,9.638c-37.75,36.946-47.387,93.167-25.702,140.553c22.487,47.385,72.282,76.295,124.49,70.675
			c3.215,0,7.225,1.604,8.026,4.816c1.604,3.215,0.811,7.225-1.604,9.64c-11.244,11.244-24.897,20.087-39.354,27.307
			C461.905,273.194,451.469,278.008,441.826,279.619C441.512,279.613,441.826,279.619,441.826,279.619z"/>
	</g>
</g>
<g>
	<path fill="#ECF0F1" d="M94.878,234.291c-32.23,0-58.518,26.376-58.518,58.704c0,32.33,26.287,58.703,58.518,58.703h254.425
		c32.227,0,58.517-26.373,58.517-58.703c0-32.327-26.29-58.704-58.517-58.704c-3.395,0-6.786,0-10.177,0.851
		c-2.547,0-5.089,0-6.788-1.7c-1.694-1.702-3.395-3.403-3.395-5.956c-7.629-52.747-53.433-92.733-106.86-92.733
		c-53.431,0-99.223,39.988-106.856,92.733c0,2.552-1.698,4.254-3.396,5.956c-1.695,1.702-4.244,1.702-6.784,1.702
		C100.814,234.291,97.422,234.291,94.878,234.291z"/>
	<g>
		<g>
			<path fill="#2C3E50" d="M339.73,364.665H98.787c-40.161,0-72.283-32.127-72.283-72.281c0-40.959,34.539-74.692,76.302-72.283
				c12.048-53.81,60.235-93.966,116.453-93.966c56.218,0,104.409,39.354,116.453,93.966c41.764-2.409,76.302,31.324,76.302,72.283
				C412.014,332.54,379.888,364.665,339.73,364.665z M98.787,236.966c-30.521,0-55.417,24.898-55.417,55.417
				c0,30.518,24.896,55.417,55.417,55.417h240.942c30.515,0,55.414-24.899,55.414-55.417c0-30.521-24.899-55.417-55.414-55.417
				c-3.215,0-6.432,0-9.641,0.804c-2.409,0-4.816,0-6.426-1.605c-1.607-1.605-3.215-3.213-3.215-5.622
				C313.223,180.75,269.85,143,219.251,143c-50.6,0-93.965,37.749-101.197,87.544c0,2.409-1.604,4.017-3.213,5.622
				c-2.409,1.605-4.019,1.605-6.429,1.605C105.213,236.966,101.999,236.966,98.787,236.966z"/>
		</g>
		<path fill="#2C3E50" d="M357.401,435.341h-30.52l21.685-21.685c3.212-3.212,3.212-8.835,0-12.048
			c-3.215-3.212-8.836-3.212-12.051,0l-21.685,21.683v-30.516c0-4.819-4.019-8.031-8.029-8.031c-4.019,0-8.029,4.016-8.029,8.031
			v30.516l-21.684-20.885c-3.212-3.214-8.833-3.214-12.047,0c-3.215,3.216-3.215,8.837,0,12.049l21.683,21.685h-30.52
			c-4.816,0-8.029,4.019-8.029,8.029c0,4.019,4.017,8.032,8.029,8.032h30.52l-21.683,21.682c-3.215,3.215-3.215,8.838,0,12.051
			c1.602,1.602,4.017,2.408,5.622,2.408c1.603,0,4.018-0.804,5.624-2.408l21.682-21.683v30.518c0,4.817,4.02,8.029,8.032,8.029
			c4.016,0,8.029-4.019,8.029-8.029v-30.518l21.683,21.683c1.603,1.602,4.019,2.408,5.621,2.408c1.604,0,4.019-0.804,5.623-2.408
			c3.214-3.213,3.214-8.836,0-12.051l-21.683-21.682h32.127c4.817,0,8.032-4.019,8.032-8.032
			C365.434,440.162,361.415,435.341,357.401,435.341z"/>
		<path fill="#2C3E50" d="M195.164,469.074h-30.52l21.681-21.685c3.212-3.212,3.212-8.835,0-12.048
			c-3.212-3.212-8.834-3.212-12.052,0l-21.681,21.685v-30.52c0-4.817-4.019-8.029-8.032-8.029c-4.019,0-8.027,4.016-8.027,8.029
			v30.52l-21.686-21.685c-3.212-3.212-8.834-3.212-12.048,0c-3.215,3.213-3.215,8.836,0,12.048l21.682,21.685H93.963
			c-4.816,0-8.032,4.017-8.032,8.032c0,4.014,4.02,8.032,8.032,8.032h30.519L102.8,506.817c-3.215,3.215-3.215,8.836,0,12.051
			c1.602,1.604,4.017,2.408,5.622,2.408c1.604,0,4.017-0.804,5.622-2.408l21.682-21.685v30.521c0,4.816,4.02,8.028,8.032,8.028
			c4.016,0,8.026-4.016,8.026-8.028v-30.521l21.686,21.685c1.602,1.604,4.019,2.408,5.622,2.408c1.602,0,4.019-0.804,5.622-2.408
			c3.212-3.215,3.212-8.836,0-12.051l-21.686-21.679h30.52c4.818,0,8.032-4.019,8.032-8.032
			C201.587,473.09,199.982,469.074,195.164,469.074z"/>
	</g>
</g>
</svg>
