<?xml version="1.0" encoding="utf-8"?>
<!-- Generator: Adobe Illustrator 16.0.0, SVG Export Plug-In . SVG Version: 6.00 Build 0)  -->
<!DOCTYPE svg PUBLIC "-//W3C//DTD SVG 1.1//EN" "http://www.w3.org/Graphics/SVG/1.1/DTD/svg11.dtd">
<svg version="1.1" id="Layer_1" xmlns="http://www.w3.org/2000/svg" xmlns:xlink="http://www.w3.org/1999/xlink" x="0px" y="0px"
	 width="538.582px" height="538.583px" viewBox="0 0 538.582 538.583" enable-background="new 0 0 538.582 538.583"
	 xml:space="preserve">
<g>
	<circle fill="#F3E59A" cx="269.64" cy="267.835" r="124.376"/>
	<g>
		<g>
			<path fill="#2C3E50" d="M270.365,407.508c-19.314,0-38.628-4.293-56.87-12.88c-69.741-31.12-100.863-113.744-68.678-183.486
				c22.534-49.359,71.898-81.546,126.615-81.546c19.318,0,38.636,4.292,56.872,12.877c69.743,31.118,100.866,113.745,68.681,183.486
				C374.452,375.32,325.09,407.508,270.365,407.508z M270.365,153.205c-45.063,0-86.915,26.825-106.229,68.674
				c-26.831,57.943,0,127.689,57.946,153.441c15.022,6.439,31.117,10.73,48.28,10.73c45.068,0,86.918-26.823,106.232-68.675
				c26.83-57.943,0-127.688-57.946-153.443C302.557,156.423,286.458,153.205,270.365,153.205z"/>
		</g>
		<g>
			<path fill="#2C3E50" d="M509.65,388.193c-1.073,0-3.218,0-4.291-1.074l-63.308-28.971c-5.371-2.143-8.591-9.653-5.371-15.022
				c2.144-5.371,9.653-8.583,15.026-5.371l63.3,28.972c5.373,2.142,8.594,9.655,5.373,15.022
				C517.163,386.05,513.942,388.193,509.65,388.193z"/>
		</g>
		<g>
			<path fill="#2C3E50" d="M94.391,200.417c-1.076,0-3.216,0-4.295-1.073l-63.308-28.972c-5.369-2.144-8.585-9.655-5.369-15.019
				c2.142-5.37,9.653-8.589,15.022-5.37l63.307,28.971c5.369,2.144,8.59,9.657,5.369,15.022
				C102.974,198.272,98.683,200.417,94.391,200.417z"/>
		</g>
		<g>
			<path fill="#2C3E50" d="M349.765,104.917c-1.074,0-3.218,0-4.292-1.073c-5.37-2.143-8.59-9.656-5.37-15.022l28.971-63.308
				c2.145-5.367,9.653-8.583,15.022-5.367c5.369,2.145,8.591,9.656,5.369,15.022l-28.968,63.307
				C358.352,101.7,354.057,104.917,349.765,104.917z"/>
		</g>
		<g>
			<path fill="#2C3E50" d="M161.992,519.103c-1.077,0-3.218,0-4.295-1.077c-5.369-2.145-8.59-9.653-5.369-15.02l28.971-63.307
				c2.141-5.371,9.652-8.593,15.022-5.371c5.369,2.143,8.585,9.651,5.369,15.022l-28.971,63.302
				C170.575,516.962,166.282,519.103,161.992,519.103z"/>
		</g>
		<g>
			<path fill="#2C3E50" d="M450.628,212.221c-4.292,0-8.584-3.219-10.728-7.511c-2.141-5.368,1.077-11.804,6.436-13.949
				l64.381-24.677c5.369-2.144,11.812,1.074,13.949,6.437c2.144,5.366-1.074,11.803-6.436,13.948l-64.382,24.676
				C453.852,212.221,451.708,212.221,450.628,212.221z"/>
		</g>
		<g>
			<path fill="#2C3E50" d="M24.642,373.17c-4.292,0-8.585-3.218-10.729-7.51c-2.142-5.37,1.078-11.805,6.438-13.946l64.381-24.678
				c5.369-2.141,11.803,1.073,13.951,6.436c2.14,5.369-1.079,11.803-6.439,13.945L27.862,372.1
				C27.862,372.1,26.792,373.17,24.642,373.17z"/>
		</g>
		<g>
			<path fill="#2C3E50" d="M202.766,99.553c-4.293,0-8.585-3.22-10.727-7.513l-24.678-64.383
				c-2.141-5.366,1.077-11.802,6.438-13.947c5.369-2.146,11.803,1.073,13.945,6.438l24.674,64.383
				c2.144,5.364-1.074,11.803-6.434,13.946C204.912,99.553,203.838,99.553,202.766,99.553z"/>
		</g>
		<g>
			<path fill="#2C3E50" d="M362.644,525.545c-4.296,0-8.591-3.218-10.728-7.513l-24.676-64.383
				c-2.143-5.367,1.073-11.805,6.432-13.947c5.369-2.141,11.809,1.075,13.949,6.434l24.676,64.387
				c2.141,5.366-1.077,11.805-6.439,13.949C365.862,525.545,363.721,525.545,362.644,525.545z"/>
		</g>
	</g>
</g>
</svg>
