<?xml version="1.0" encoding="utf-8"?>
<!-- Generator: Adobe Illustrator 16.0.0, SVG Export Plug-In . SVG Version: 6.00 Build 0)  -->
<!DOCTYPE svg PUBLIC "-//W3C//DTD SVG 1.1//EN" "http://www.w3.org/Graphics/SVG/1.1/DTD/svg11.dtd">
<svg version="1.1" id="Layer_1" xmlns="http://www.w3.org/2000/svg" xmlns:xlink="http://www.w3.org/1999/xlink" x="0px" y="0px"
	 width="538.582px" height="538.582px" viewBox="0 0 538.582 538.582" enable-background="new 0 0 538.582 538.582"
	 xml:space="preserve">
<g>
	<g>
		<path fill="#2C3E50" d="M327.976,217.664h-216.21c-5.294,0-8.824-4.417-8.824-8.823c0-4.416,4.416-8.826,8.824-8.826h216.212
			c70.601,0,108.549-13.239,108.549-37.951c0-5.291,4.416-8.819,8.824-8.819c4.416,0,8.823,4.414,8.823,8.819
			C455.058,199.129,411.815,217.664,327.976,217.664z"/>
	</g>
	<g>
		<path fill="#2C3E50" d="M511.539,332.388c-5.294,0-8.824-4.414-8.824-8.825c0-15.002-22.062-41.479-104.135-41.479H26.165
			c-5.294,0-8.826-4.414-8.826-8.824c0-4.411,4.416-8.824,8.826-8.824h372.412c116.488,0,122.666,49.421,122.666,60.01
			C521.244,328.86,516.832,332.388,511.539,332.388z"/>
	</g>
	<g>
		<path fill="#2C3E50" d="M352.686,385.338c-5.293,0-8.825-4.412-8.825-8.823c0-13.237-24.709-29.125-92.662-29.125H61.464
			c-5.294,0-8.823-4.414-8.823-8.823c0-4.411,4.413-8.825,8.823-8.825h188.855c97.073,0,111.196,30.005,111.196,47.655
			C361.512,381.807,357.1,385.338,352.686,385.338z"/>
	</g>
</g>
</svg>
