<?xml version="1.0" encoding="utf-8"?>
<!-- Generator: Adobe Illustrator 16.0.0, SVG Export Plug-In . SVG Version: 6.00 Build 0)  -->
<!DOCTYPE svg PUBLIC "-//W3C//DTD SVG 1.1//EN" "http://www.w3.org/Graphics/SVG/1.1/DTD/svg11.dtd">
<svg version="1.1" id="Layer_1" xmlns="http://www.w3.org/2000/svg" xmlns:xlink="http://www.w3.org/1999/xlink" x="0px" y="0px"
	 width="538.582px" height="538.582px" viewBox="0 0 538.582 538.582" enable-background="new 0 0 538.582 538.582"
	 xml:space="preserve">
<g>
	<path fill="#ECF0F1" d="M228.013,155.985c-30.822,0-55.965,25.147-55.965,55.97s25.143,55.967,55.965,55.967h243.338
		c30.824,0,55.969-25.145,55.969-55.967c0-30.821-25.146-55.97-55.969-55.97c-3.242,0-6.488,0-9.732,0.812
		c-2.432,0-4.869,0-6.492-1.62c-1.619-1.623-3.246-3.246-3.246-5.678c-7.295-50.289-51.102-88.413-102.197-88.413
		c-51.105,0-94.902,38.124-102.203,88.413c0,2.433-1.624,4.055-3.247,5.678c-1.623,1.622-4.056,1.622-6.489,1.622
		C233.692,155.985,230.446,155.985,228.013,155.985z"/>
	<g>
		<path fill="#F2E085" d="M306.578,291.884c-4.564,0.761-7.611,4.569-6.844,9.135l9.133,58.597c0,3.044,2.281,5.326,4.564,6.089
			l36.525,15.219l-10.654,95.125c-0.762,3.807,1.518,6.848,4.566,8.369c0.76,0.763,2.281,0.763,3.043,0.763
			c3.045,0,5.326-0.763,6.844-3.038l83.709-111.87c2.285-3.043,2.285-7.605-0.76-10.652l-37.293-35.77l6.092-22.07
			c1.52-4.562-0.764-9.131-5.326-9.892L306.578,291.884z"/>
		<g>
			<path fill="#2C3E50" d="M467.912,279.182h-229.06c-38.055,0-68.489-30.439-68.489-68.491c0-38.049,30.44-68.487,68.489-68.487
				c1.518,0,2.28,0,3.807,0C254.076,90.457,300.494,53.17,353,53.17c52.508,0,98.932,37.287,110.346,89.034c1.518,0,3.043,0,3.803,0
				c38.053,0,68.49,30.44,68.49,68.487C535.64,248.743,505.201,279.182,467.912,279.182z M238.852,157.422
				c-28.918,0-52.511,23.593-52.511,52.508c0,28.918,23.592,52.51,52.511,52.51h228.296c28.918,0,52.51-23.591,52.51-52.51
				c0-28.918-23.592-52.508-52.51-52.508c-3.043,0-6.088,0-9.131,0.762c-2.283,0-4.568,0-6.09-1.521
				c-1.523-1.522-3.051-3.044-3.051-5.327c-6.844-47.181-47.939-82.95-95.883-82.95c-47.941,0-89.035,35.77-95.885,82.95
				c0,2.283-1.521,3.805-3.046,5.327c-1.521,1.521-3.809,1.521-6.091,1.521C244.938,158.183,241.895,157.422,238.852,157.422z"/>
		</g>
		<g>
			<path fill="#2C3E50" d="M346.914,485.412c-0.764,0-2.285,0-3.045-0.763c-3.047-1.521-5.328-4.562-4.564-8.368l10.652-95.124
				l-36.525-15.222c-2.281-0.762-4.564-3.044-4.564-6.088l-9.133-58.596c-0.768-4.566,2.279-8.377,6.844-9.136
				c4.564-0.766,8.373,2.281,9.137,6.846l8.371,54.032l38.055,15.981c3.043,1.519,5.326,4.563,4.562,8.369l-8.373,72.299
				l63.16-83.707l-35.766-34.244c-2.285-2.281-3.047-5.324-2.285-7.609l6.846-26.634c0.764-4.566,5.326-6.848,9.893-5.328
				c4.564,0.762,6.848,5.328,5.328,9.89l-6.092,22.072l37.293,35.768c3.045,3.048,3.045,7.61,0.76,10.653l-83.711,111.872
				C352.24,484.65,349.957,485.412,346.914,485.412z"/>
		</g>
		<g>
			<path fill="#2C3E50" d="M163.512,140.681H79.043c-4.563,0-7.607-3.807-7.607-7.609c0-3.807,3.808-7.61,7.607-7.61h84.469
				c4.563,0,7.609,3.807,7.609,7.61C171.121,136.875,168.078,140.681,163.512,140.681z"/>
		</g>
		<g>
			<path fill="#2C3E50" d="M120.897,209.931H10.552c-4.565,0-7.609-3.806-7.609-7.609c0-3.808,3.808-7.61,7.609-7.61h111.104
				c4.564,0,7.608,3.805,7.608,7.61C129.267,206.127,125.461,209.931,120.897,209.931z"/>
		</g>
		<g>
			<path fill="#2C3E50" d="M152.858,278.421H57.737c-4.565,0-7.609-3.805-7.609-7.61c0-3.804,3.809-7.609,7.609-7.609h95.121
				c4.563,0,7.609,3.805,7.609,7.609C160.469,274.619,157.423,278.421,152.858,278.421z"/>
		</g>
	</g>
</g>
</svg>
